<svg width="1024" height="1024" viewBox="0 0 57 54" fill="none" xmlns="http://www.w3.org/2000/svg">
<rect width="1024" height="1024" fill="#F0F0F3"/>
<path d="M12.017 33.182C11.315 33.182 10.6953 33.0563 10.158 32.805C9.62067 32.5537 9.20033 32.194 8.897 31.726C8.59367 31.258 8.442 30.6947 8.442 30.036V29.672H10.132V30.036C10.132 30.582 10.301 30.9937 10.639 31.271C10.977 31.5397 11.4363 31.674 12.017 31.674C12.6063 31.674 13.044 31.557 13.33 31.323C13.6247 31.089 13.772 30.79 13.772 30.426C13.772 30.0447 13.6117 29.7717 13.291 29.607C12.979 29.4337 12.5283 29.282 11.939 29.152L11.64 29.087C11.016 28.9483 10.4787 28.775 10.028 28.567C9.586 28.3503 9.24367 28.0687 9.001 27.722C8.767 27.3753 8.65 26.9247 8.65 26.37C8.65 25.538 8.94033 24.888 9.521 24.42C10.1103 23.952 10.8903 23.718 11.861 23.718C12.511 23.718 13.0873 23.8307 13.59 24.056C14.1013 24.2727 14.5 24.602 14.786 25.044C15.0807 25.4773 15.228 26.0233 15.228 26.682V27.072H13.538V26.682C13.538 26.162 13.3863 25.7893 13.083 25.564C12.7883 25.3387 12.381 25.226 11.861 25.226C11.341 25.226 10.9553 25.3257 10.704 25.525C10.4613 25.7157 10.34 25.98 10.34 26.318C10.34 26.656 10.47 26.916 10.73 27.098C10.99 27.28 11.393 27.4317 11.939 27.553L12.238 27.618C12.888 27.7567 13.4513 27.9343 13.928 28.151C14.4133 28.3677 14.7903 28.6537 15.059 29.009C15.3277 29.3643 15.462 29.8193 15.462 30.374C15.462 30.9287 15.319 31.4183 15.033 31.843C14.7557 32.259 14.357 32.5883 13.837 32.831C13.3257 33.065 12.719 33.182 12.017 33.182ZM19.8618 33.182C19.2205 33.182 18.6441 33.052 18.1328 32.792C17.6215 32.532 17.2185 32.155 16.9238 31.661C16.6291 31.167 16.4818 30.5733 16.4818 29.88V29.672C16.4818 28.9787 16.6291 28.385 16.9238 27.891C17.2185 27.397 17.6215 27.02 18.1328 26.76C18.6441 26.5 19.2205 26.37 19.8618 26.37C20.5031 26.37 21.0795 26.5 21.5908 26.76C22.1021 27.02 22.5051 27.397 22.7998 27.891C23.0945 28.385 23.2418 28.9787 23.2418 29.672V29.88C23.2418 30.5733 23.0945 31.167 22.7998 31.661C22.5051 32.155 22.1021 32.532 21.5908 32.792C21.0795 33.052 20.5031 33.182 19.8618 33.182ZM19.8618 31.726C20.3645 31.726 20.7805 31.5657 21.1098 31.245C21.4391 30.9157 21.6038 30.4477 21.6038 29.841V29.711C21.6038 29.1043 21.4391 28.6407 21.1098 28.32C20.7891 27.9907 20.3731 27.826 19.8618 27.826C19.3591 27.826 18.9431 27.9907 18.6138 28.32C18.2845 28.6407 18.1198 29.1043 18.1198 29.711V29.841C18.1198 30.4477 18.2845 30.9157 18.6138 31.245C18.9431 31.5657 19.3591 31.726 19.8618 31.726ZM31.4605 33.182C30.3339 33.182 29.4412 32.87 28.7825 32.246C28.1239 31.6133 27.7945 30.712 27.7945 29.542V27.358C27.7945 26.188 28.1239 25.291 28.7825 24.667C29.4412 24.0343 30.3339 23.718 31.4605 23.718C32.5785 23.718 33.4409 24.0257 34.0475 24.641C34.6629 25.2477 34.9705 26.084 34.9705 27.15V27.228H33.2805V27.098C33.2805 26.5607 33.1289 26.1187 32.8255 25.772C32.5309 25.4253 32.0759 25.252 31.4605 25.252C30.8539 25.252 30.3772 25.4383 30.0305 25.811C29.6839 26.1837 29.5105 26.6907 29.5105 27.332V29.568C29.5105 30.2007 29.6839 30.7077 30.0305 31.089C30.3772 31.4617 30.8539 31.648 31.4605 31.648C32.0759 31.648 32.5309 31.4747 32.8255 31.128C33.1289 30.7727 33.2805 30.3307 33.2805 29.802V29.568H34.9705V29.75C34.9705 30.816 34.6629 31.6567 34.0475 32.272C33.4409 32.8787 32.5785 33.182 31.4605 33.182ZM36.4207 33V26.552H38.0587V33H36.4207ZM37.2397 25.798C36.9451 25.798 36.6937 25.7027 36.4857 25.512C36.2864 25.3213 36.1867 25.07 36.1867 24.758C36.1867 24.446 36.2864 24.1947 36.4857 24.004C36.6937 23.8133 36.9451 23.718 37.2397 23.718C37.5431 23.718 37.7944 23.8133 37.9937 24.004C38.1931 24.1947 38.2927 24.446 38.2927 24.758C38.2927 25.07 38.1931 25.3213 37.9937 25.512C37.7944 25.7027 37.5431 25.798 37.2397 25.798ZM42.3439 33C41.9192 33 41.5725 32.87 41.3039 32.61C41.0439 32.3413 40.9139 31.986 40.9139 31.544V27.904H39.3019V26.552H40.9139V24.55H42.5519V26.552H44.3199V27.904H42.5519V31.258C42.5519 31.518 42.6732 31.648 42.9159 31.648H44.1639V33H42.3439ZM46.5046 35.6V34.17H50.0146C50.2572 34.17 50.3786 34.04 50.3786 33.78V32.155H50.1446C50.0406 32.3717 49.8456 32.584 49.5596 32.792C49.2736 33 48.8402 33.104 48.2596 33.104C47.7569 33.104 47.3149 32.9913 46.9336 32.766C46.5609 32.532 46.2706 32.2113 46.0626 31.804C45.8546 31.3967 45.7506 30.9287 45.7506 30.4V26.552H47.3886V30.27C47.3886 30.7553 47.5056 31.1193 47.7396 31.362C47.9822 31.6047 48.3246 31.726 48.7666 31.726C49.2692 31.726 49.6592 31.5613 49.9366 31.232C50.2139 30.894 50.3526 30.426 50.3526 29.828V26.552H51.9906V34.144C51.9906 34.586 51.8606 34.937 51.6006 35.197C51.3406 35.4657 50.9939 35.6 50.5606 35.6H46.5046Z" fill="black"/>
</svg>
