<svg width="170" height="252" viewBox="0 0 170 252" fill="none" xmlns="http://www.w3.org/2000/svg">
<path fill-rule="evenodd" clip-rule="evenodd" d="M156.355 223.954C155.801 223.677 155.224 223.361 154.591 223.339C153.505 223.3 153.503 221.61 154.591 221.648C155.54 221.681 156.373 222.076 157.208 222.493C158.182 222.979 157.326 224.438 156.355 223.954ZM154.591 176.361C155.332 176.362 156.08 176.456 156.649 176.974C156.987 177.283 156.961 177.858 156.649 178.17C156.315 178.503 155.791 178.477 155.454 178.17C155.564 178.27 155.455 178.171 155.415 178.149C155.405 178.144 155.4 178.14 155.397 178.138C155.389 178.136 155.381 178.134 155.367 178.13C155.279 178.108 155.191 178.086 155.102 178.07C155.1 178.074 154.913 178.058 154.869 178.056C154.776 178.053 154.684 178.052 154.591 178.052C154.133 178.052 153.746 177.666 153.746 177.207C153.746 176.75 154.134 176.361 154.591 176.361ZM146.644 195.327C146.402 196.389 144.773 195.937 145.015 194.878C145.366 193.338 145.302 191.76 145.015 190.214C144.817 189.149 146.446 188.696 146.644 189.765C146.989 191.619 147.066 193.479 146.644 195.327ZM144.51 134.562C143.251 134.263 142.006 134.227 140.719 134.227C139.629 134.226 139.631 132.536 140.719 132.536C142.155 132.536 143.556 132.598 144.959 132.931C146.019 133.183 145.567 134.813 144.51 134.562ZM140.292 175.745C139.562 175.38 138.831 175.015 138.102 174.65C137.127 174.163 137.984 172.705 138.954 173.19L141.145 174.286C142.119 174.773 141.262 176.231 140.292 175.745ZM139.988 209.042C139.062 210.377 137.76 211.207 136.198 211.622C135.144 211.901 134.698 210.27 135.748 209.991C136.866 209.695 137.859 209.155 138.529 208.189C139.145 207.3 140.61 208.146 139.988 209.042ZM134.148 149.512C133.897 149.044 133.52 148.846 133.052 148.835C131.964 148.81 131.964 147.12 133.052 147.145C134.119 147.169 135.097 147.705 135.607 148.659C136.12 149.619 134.661 150.472 134.148 149.512ZM123.428 161.005C123.125 161.335 122.538 161.327 122.233 161.005C122.046 160.808 121.89 160.588 121.766 160.347C121.719 160.255 121.675 160.162 121.624 160.073C121.601 160.034 121.575 159.994 121.549 159.956C121.54 159.948 121.522 159.929 121.503 159.909C121.178 159.566 121.186 159.059 121.503 158.714C121.806 158.384 122.393 158.392 122.698 158.714C122.884 158.911 123.041 159.131 123.164 159.372C123.211 159.463 123.256 159.557 123.307 159.646C123.33 159.685 123.356 159.724 123.382 159.762C123.391 159.77 123.409 159.789 123.428 159.809C123.753 160.153 123.745 160.66 123.428 161.005ZM122.526 185.972C121.426 186.475 120.219 186.475 119.118 185.972C118.701 185.781 118.602 185.179 118.815 184.815C119.061 184.393 119.556 184.322 119.971 184.511C120.47 184.74 121.175 184.74 121.674 184.511C122.09 184.321 122.58 184.388 122.83 184.815C123.044 185.181 122.942 185.781 122.526 185.972ZM119.524 203.643C119.335 204.091 118.926 204.329 118.449 204.347C117.976 204.365 117.624 203.946 117.604 203.502C117.591 203.215 117.746 202.971 117.969 202.819C117.969 202.803 117.969 202.787 117.969 202.772C117.969 202.298 118.356 201.947 118.814 201.926C119.27 201.906 119.66 202.329 119.659 202.772C119.659 203.07 119.641 203.366 119.524 203.643ZM115.163 231.739C113.815 231.76 112.497 232.082 111.148 232.104C110.058 232.121 110.061 230.431 111.148 230.413C112.497 230.391 113.814 230.07 115.163 230.048C116.253 230.03 116.25 231.721 115.163 231.739ZM109.555 123.388C108.766 124.14 107.79 124.511 106.829 124.981C105.854 125.457 104.998 123.999 105.976 123.521C106.79 123.123 107.692 122.829 108.36 122.193C109.148 121.442 110.345 122.636 109.555 123.388ZM107.436 142.877C106.882 142.6 106.304 142.284 105.672 142.262C104.586 142.223 104.584 140.533 105.672 140.571C106.621 140.604 107.454 141 108.289 141.417C109.263 141.903 108.406 143.361 107.436 142.877ZM97.2759 221.094C97.0259 220.625 96.6479 220.428 96.1799 220.417C95.0919 220.392 95.0919 218.701 96.1799 218.726C97.2469 218.75 98.2259 219.285 98.7349 220.24C99.2479 221.201 97.7889 222.054 97.2759 221.094ZM93.7569 184.378C93.4209 184.07 93.4439 183.496 93.7569 183.183C94.1219 182.818 94.4869 182.453 94.8519 182.087C95.1859 181.753 95.7099 181.778 96.0469 182.087C96.3839 182.396 96.3599 182.97 96.0469 183.283C95.6819 183.648 95.3169 184.013 94.9519 184.378C94.6179 184.713 94.0939 184.688 93.7569 184.378ZM89.6079 241.599C88.3889 241.571 87.2459 241.221 86.0979 240.839C85.0699 240.495 85.5129 238.864 86.5479 239.208C87.5449 239.54 88.5479 239.883 89.6079 239.908C90.6959 239.934 90.6969 241.624 89.6079 241.599ZM84.1319 205.443C83.0309 205.413 82.1169 204.851 81.3449 204.1C80.5629 203.34 81.7589 202.145 82.5399 202.904C82.9819 203.334 83.4919 203.735 84.1319 203.752C85.2199 203.783 85.2209 205.473 84.1319 205.443ZM87.5329 158.946C87.5459 159.396 87.7369 159.879 88.0159 160.175C88.7629 160.966 87.5689 162.163 86.8209 161.37C86.2029 160.716 85.8689 159.841 85.8429 158.946C85.8119 157.856 87.5019 157.861 87.5329 158.946ZM74.6419 122.121C74.2879 121.429 73.8249 120.616 73.1199 120.233C72.1619 119.714 73.0159 118.254 73.9729 118.773C74.9309 119.294 75.6169 120.319 76.1009 121.268C76.5959 122.236 75.1369 123.091 74.6419 122.121ZM72.4509 139.705C72.0589 139.694 71.6699 139.627 71.2909 139.524C71.1299 139.48 70.9699 139.43 70.8079 139.386C70.7389 139.367 70.4449 139.33 70.6249 139.34C70.1679 139.315 69.7799 138.972 69.7799 138.494C69.7799 138.055 70.1689 137.624 70.6249 137.649C71.2529 137.683 71.8229 137.996 72.4509 138.014C73.5379 138.045 73.5389 139.736 72.4509 139.705ZM66.9743 166.731H65.149C64.0597 166.731 64.0616 165.04 65.149 165.04H66.9743C68.0639 165.04 68.0619 166.731 66.9743 166.731ZM64.845 241.484C64.2914 241.761 63.6391 242.023 63.1907 242.447C62.4002 243.195 61.2036 242.001 61.9956 241.252C62.5667 240.712 63.2968 240.372 63.9921 240.024C64.4017 239.819 64.9054 239.912 65.1483 240.327C65.3678 240.703 65.2531 241.28 64.845 241.484ZM60.7671 220.12C60.6963 220.101 60.6215 220.087 60.5499 220.077C60.2626 220.038 59.962 220.052 59.6734 220.052C58.5841 220.051 58.5858 218.36 59.6734 218.361C60.5305 218.361 61.4224 218.373 62.0964 218.974C62.4384 219.279 62.4053 219.86 62.0964 220.169C61.7605 220.505 61.2418 220.473 60.9012 220.169C60.9372 220.202 60.814 220.134 60.7671 220.12ZM59.6732 191.389C59.9187 190.882 59.9225 190.552 59.9229 189.989C59.9238 188.9 61.6139 188.901 61.613 189.989C61.6126 190.806 61.4911 191.502 61.1326 192.242C60.9325 192.655 60.3469 192.762 59.9766 192.545C59.5612 192.303 59.4744 191.799 59.6732 191.389ZM54.7864 151.727C53.8062 152.06 52.9311 152.532 52.0678 153.102C51.1566 153.704 50.3109 152.239 51.2147 151.642C52.1999 150.992 53.2188 150.477 54.3371 150.096C55.371 149.745 55.8107 151.378 54.7864 151.727ZM49.0859 123.27C48.3577 123.291 47.606 123.57 46.957 123.885C45.9816 124.359 45.1257 122.901 46.1041 122.425C47.0312 121.975 48.0455 121.609 49.0859 121.58C50.1759 121.549 50.1712 123.24 49.0859 123.27ZM46.5303 199.235C46.2438 199.247 45.999 199.093 45.8473 198.87C45.8315 198.87 45.8158 198.869 45.8002 198.869C45.3265 198.869 44.9758 198.482 44.9551 198.024C44.9346 197.568 45.3582 197.178 45.8002 197.179C46.0985 197.179 46.3945 197.197 46.6717 197.314C47.1193 197.503 47.3572 197.911 47.3754 198.389C47.3933 198.863 46.9738 199.215 46.5303 199.235ZM42.3745 140.77C41.3365 141.11 40.8958 139.477 41.9251 139.14C43.1334 138.745 44.368 138.439 45.576 138.044C46.614 137.705 47.0547 139.338 46.0252 139.675C44.8174 140.07 43.5825 140.375 42.3745 140.77ZM38.5842 172.684C38.2622 173.722 36.6314 173.276 36.9542 172.234C37.2661 171.229 37.2885 170.217 37.2891 169.172C37.2897 168.082 38.9799 168.084 38.9792 169.172C38.9786 170.361 38.9387 171.539 38.5842 172.684ZM27.2838 210.908C27.2223 211.329 26.8885 211.632 26.4516 211.652C26.0069 211.672 25.5905 211.249 25.6066 210.806C25.6376 209.955 26.3312 209.262 27.1818 209.231C27.655 209.213 28.007 209.632 28.0269 210.076C28.0463 210.508 27.6859 210.845 27.2838 210.908ZM21.5651 162.318C20.6721 162.616 19.7178 162.9 19.0176 163.561C18.2264 164.308 17.0298 163.114 17.8225 162.366C18.7457 161.494 19.9333 161.083 21.1159 160.687C22.1516 160.342 22.5916 161.975 21.5651 162.318ZM17.6896 195.164C17.4441 195.583 16.947 195.659 16.5336 195.467C15.9792 195.209 15.3671 195.218 14.7695 195.217C13.6804 195.216 13.6821 193.526 14.7695 193.526C15.6914 193.527 16.542 193.614 17.3867 194.007C17.8022 194.201 17.9034 194.798 17.6896 195.164ZM15.4998 235.025C15.0266 235.043 14.6746 234.624 14.6547 234.18C14.6353 233.747 14.9955 233.411 15.398 233.348C15.4593 232.926 15.7933 232.624 16.23 232.604C16.6749 232.584 17.0913 233.007 17.075 233.45C17.044 234.301 16.3508 234.993 15.4998 235.025ZM169.477 241.418C169.19 240.385 168.533 239.549 168.036 238.62C167.87 238.307 167.812 238.111 167.722 237.882C167.599 238.128 167.361 238.312 167.004 238.312C166.317 238.313 165.515 238.268 164.874 238.562C164.458 238.753 163.967 238.685 163.718 238.259C163.504 237.893 163.607 237.292 164.022 237.102C164.965 236.669 165.98 236.622 167.004 236.621C167.256 236.621 167.448 236.715 167.583 236.855C167.974 231.495 167.965 226.131 167.595 220.767C167.2 215.036 166.291 209.418 165.34 203.76C164.88 201.017 164.282 198.246 164.398 195.452C164.514 192.677 165.704 190.09 164.861 187.306C164.523 186.19 163.944 185.168 163.568 184.064C163.164 182.877 163.2 181.704 163.384 180.473C163.762 177.969 164.39 175.494 163.386 173.049C162.943 171.964 162.224 170.997 161.878 169.876C161.447 168.484 161.506 166.943 161.434 165.499C161.288 162.587 161.25 159.655 161.009 156.749C160.902 155.447 160.667 154.213 160.133 153.019C159.619 151.869 158.857 150.823 158.517 149.604C158.179 148.403 158.149 147.137 157.967 145.909C157.777 144.612 157.479 143.333 157.078 142.086C155.527 137.259 152.686 132.922 149.329 129.162C145.76 125.165 141.495 122.156 136.967 119.351C134.586 117.876 132.206 116.401 129.827 114.927C129.776 115.203 129.6 115.457 129.261 115.571C128.368 115.869 127.414 116.153 126.713 116.814C125.922 117.561 124.726 116.367 125.518 115.619C126.345 114.838 127.384 114.426 128.442 114.065C127.358 113.382 126.262 112.674 125.039 112.279C123.968 111.933 122.388 112.235 121.519 111.449C120.837 110.829 120.621 109.682 120.36 108.84C120.032 107.796 119.749 106.695 119.333 105.681C119.05 104.988 118.638 104.322 118.118 103.785C117.89 102.906 117.471 102.103 116.732 101.614C114.797 100.334 112.42 101.606 111.569 103.432C110.865 103.43 110.124 103.584 109.439 103.626C108.032 103.715 106.623 103.755 105.214 103.751C102.457 103.743 99.6979 103.563 96.9639 103.197C92.0749 102.542 87.3319 101.221 82.5259 100.192C82.4979 100.129 82.4669 100.065 82.4289 100.002C81.3929 98.2645 78.8139 98.5575 77.1889 99.2155C76.4919 99.4965 75.7819 99.8515 75.3829 100.511C74.9599 100.796 74.5949 101.143 74.3519 101.509C73.8489 102.263 73.4599 103.785 72.4399 103.912C71.7679 103.994 71.0859 103.865 70.4029 103.963C69.5499 104.081 68.7849 104.381 67.9969 104.723C61.9967 107.329 55.7939 110.227 49.2824 111.237C47.7552 111.474 46.2003 111.719 44.8735 112.575C43.796 113.27 42.9634 114.226 42.0742 115.132C41.208 116.016 40.4939 116.407 39.258 116.565C37.758 116.758 36.4587 117.172 35.3622 118.262C34.4517 119.169 33.858 120.327 33.1439 121.38C32.4169 122.454 31.3503 123.058 30.2432 123.682C27.6256 125.157 25.1876 126.938 23.0643 129.075C18.5918 133.581 15.8834 139.372 13.1538 145.015C10.2024 151.119 7.44321 157.297 5.52911 163.815C3.65311 170.215 2.53761 176.798 2.02211 183.443C1.47911 190.415 1.40311 197.415 0.951012 204.392C0.724912 207.877 0.553812 211.367 0.380512 214.854C0.211512 218.299 -0.0356893 221.75 0.00431066 225.199C0.0805107 231.868 1.41341 238.557 3.74391 244.799C4.32491 246.352 4.96911 247.885 5.65571 249.395C6.25801 250.719 8.31791 250.572 8.96431 249.395C9.11221 249.124 9.22841 248.845 9.32561 248.562C11.0157 248.577 12.7228 248.445 14.4024 248.602C17.3686 248.878 20.3409 249.033 23.3155 249.217C29.2017 249.583 35.0981 249.826 40.9862 250.161C41.5574 250.195 42.1287 250.227 42.6998 250.261C38.5038 237.269 39.048 223.223 38.384 209.711C38.3305 208.622 40.0211 208.628 40.0741 209.711C40.7409 223.281 40.1732 237.363 44.5175 250.376C46.203 250.49 47.8862 250.63 49.5636 250.834C50.9198 250.997 52.2826 251.189 53.6517 251.122C55.2045 251.048 56.7214 250.692 58.2362 250.384C60.989 249.824 63.6404 250.077 66.4038 250.422C69.3599 250.792 72.3259 250.997 75.2999 251.126C87.2119 251.648 99.2029 252.123 111.11 251.327C113.992 251.134 116.867 250.864 119.73 250.496C122.679 250.118 125.597 249.48 128.544 249.12C131.449 248.765 134.119 249.739 136.99 249.919C139.918 250.103 142.925 249.492 145.826 249.141C146.772 249.025 147.719 248.915 148.667 248.804C147.447 240.44 146.753 232.012 146.08 223.589C145.993 222.502 147.684 222.511 147.77 223.589C148.438 231.947 149.116 240.311 150.334 248.61C155.357 248.025 160.385 247.433 165.355 246.523C166.771 246.265 168.178 245.844 169.025 244.58C169.652 243.644 169.779 242.496 169.477 241.418Z" fill="black"/>
<path fill-rule="evenodd" clip-rule="evenodd" d="M87.764 0.707014C92.449 -0.387986 97.3619 -0.160984 102.002 1.04252C111.2 3.42802 118.768 9.63132 125.043 16.5477C131.163 23.294 136.211 31.0278 139.897 39.359L140.084 39.7828C142.691 45.7217 144.957 51.8945 145.054 58.4338C145.138 64.0615 144.57 69.9255 142.752 75.2785C141.133 80.0465 138.155 84.8525 133.031 85.9955C130.076 93.5085 124.296 100.015 117.015 103.496C112.499 105.656 107.539 106.62 102.546 106.14C97.452 105.652 92.6939 103.203 88.7119 100.08C88.6029 99.9945 88.7429 99.8285 88.8559 99.8935C93.6489 102.657 99.3189 103.645 104.809 103.463C113.832 103.165 122.104 98.2925 126.857 90.6345C128.039 88.7285 129.093 86.7185 129.934 84.6265C129.885 84.4545 129.856 84.2805 129.856 84.1105C129.856 83.3905 130.198 82.8395 130.708 82.4835C130.944 81.7445 131.154 80.9975 131.328 80.2415C131.724 78.5285 131.945 76.7915 132.079 75.0405C132.187 73.6185 132.127 72.1085 132.27 70.6495C132.218 69.4805 132.145 68.3125 132.04 67.1475C131.699 63.3925 131.01 59.6463 129.682 56.107C128.338 52.5221 126.214 49.3607 123.535 46.6396C117.788 40.8035 110.633 36.5421 105.044 30.5467L104.752 30.2295L104.732 30.2232C104.038 30.9344 103.345 31.6456 102.651 32.3553L99.476 35.5946C92.996 42.2133 86.569 48.8963 80.9329 56.2613C77.6869 60.5025 74.7709 64.9485 72.2579 69.6625C71.0679 71.8955 69.989 74.1835 69.014 76.5185L68.6309 77.4475C68.1739 78.5605 67.681 79.8045 67.406 81.0605C68.222 81.8705 68.8179 83.0595 69.4779 83.9775C70.2259 85.0195 71.0889 86.0115 71.9769 86.9365C72.875 87.8735 73.861 88.7715 74.9069 89.5415L75.0329 89.6325C76.233 90.4845 77.611 91.0725 77.791 92.6955C77.869 93.3995 77.239 93.9665 76.6569 94.1855C75.0609 94.7855 73.408 93.0625 72.344 92.0715C71.681 91.4535 71.0719 90.7875 70.5059 90.0845C69.9559 90.1635 69.4019 90.2035 68.8539 90.1385C68.0039 90.0365 67.1628 89.8885 66.3352 89.6705C59.4716 87.8675 54.3913 82.1675 51.6503 75.8195C47.9705 67.2965 48.056 57.4719 49.5858 48.4591C52.3811 31.9886 61.4279 16.6069 75.0889 6.86902C78.9149 4.14172 83.157 1.78371 87.764 0.707014ZM95.1589 2.91042C86.3339 2.44522 78.288 6.99772 71.833 12.6646C60.0795 22.9827 52.8397 38.09 51.3833 53.6038C50.6094 61.8465 51.1884 70.7305 55.4847 78.0135C57.1516 80.8395 59.2986 83.3015 61.8328 85.3765C64.2207 87.3335 66.9426 88.4605 69.8529 89.2285C69.7199 89.0455 69.589 88.8615 69.462 88.6755C68.785 87.6835 68.2479 86.6295 67.7969 85.5255C67.7579 85.5655 67.683 85.5735 67.639 85.5125C65.8018 82.9915 66.3766 79.9835 67.2521 77.2105C68.17 74.3025 69.3339 71.4735 70.6609 68.7285C75.5009 58.7257 82.6999 50.0115 90.1729 41.8798C93.9889 37.7269 97.9319 33.6944 101.86 29.6481C103.822 27.6276 105.779 25.6011 107.71 23.5515C108.672 22.5311 109.627 21.5054 110.574 20.4715C111.511 19.4492 112.353 18.3664 113.519 17.6007C114.448 16.9905 115.376 18.1568 114.942 19.0241C114.274 20.3583 113.125 21.4159 112.108 22.5007L112.003 22.6131C111.012 23.6834 110.012 24.745 109.006 25.8009C107.848 27.0153 106.682 28.2215 105.512 29.4245C106.51 29.3089 107.519 29.2423 108.511 29.0916C109.858 28.887 111.187 28.5856 112.509 28.2578C113.903 27.9127 115.278 27.472 116.605 26.9242C117.852 26.4098 119.031 25.5855 120.403 25.5048C121.565 25.4363 121.928 26.875 121.284 27.632C120.397 28.6752 118.803 29.0858 117.506 29.4732L117.323 29.5285C115.889 29.9664 114.421 30.295 112.937 30.5146C110.985 30.8037 108.73 30.9361 106.641 30.6402C110.812 33.0864 114.649 36.1179 118.476 39.0745L119.151 39.5953C122.89 42.473 126.539 45.5752 129.205 49.5125C131.693 53.1881 133.196 57.4673 134.039 61.8035C134.455 63.9425 134.729 66.1035 134.913 68.2745C135.6 70.1995 135.49 72.4875 135.317 74.6045L135.255 75.3345L135.26 75.5495C135.285 76.8735 135.817 79.8205 134.565 80.8205C134.543 80.9265 134.524 81.0345 134.501 81.1405C134.657 81.0445 134.811 80.9455 134.964 80.8435C135.027 80.8015 135.087 80.7545 135.149 80.7095L135.322 80.5675C135.329 80.5615 135.334 80.5565 135.339 80.5525C135.728 80.2115 136.098 79.8555 136.444 79.4695C137.083 78.7575 137.69 77.8535 138.265 76.8105C139.529 74.5195 140.336 72.0295 140.96 69.4545C142.101 64.7465 142.572 59.6896 142.052 54.8615C141.979 54.1875 141.83 53.3426 141.599 52.4756C141.049 50.4171 140.417 48.3803 139.71 46.371C138.295 42.3513 136.56 38.4517 134.537 34.7015C130.428 27.0844 125.142 20.0422 118.809 14.1326C112.395 8.14782 104.077 3.38042 95.1589 2.91042ZM82.7139 27.2473C83.0319 27.0529 83.3599 27.4306 83.2019 27.7353C82.4379 29.2103 81.153 30.4556 80.085 31.7195C78.98 33.0282 77.883 34.344 76.789 35.6618C74.56 38.3449 72.385 41.0772 70.2959 43.8704L69.7449 44.6093C67.9079 47.0759 66.0934 49.5816 64.4878 52.2023C63.6478 53.5733 62.9075 54.9913 62.2352 56.4515C61.5953 57.8416 61.3001 59.5195 60.531 60.8252C60.4827 60.9076 60.3328 60.9009 60.3142 60.7967C60.0632 59.3908 60.6832 57.6974 61.1262 56.3809C61.6529 54.8152 62.4024 53.3239 63.2048 51.8836C64.8785 48.879 66.884 46.0628 68.899 43.2806C70.945 40.4554 73.0689 37.688 75.2979 35.0043C76.3439 33.7437 77.415 32.5083 78.517 31.2973L78.932 30.8443C80.086 29.5914 81.2499 28.1413 82.7139 27.2473ZM77.363 22.8794C77.886 22.4916 78.333 23.2842 77.999 23.7043C76.005 26.2139 73.736 28.4688 71.554 30.8093C69.458 33.057 67.455 35.3888 65.5644 37.8124C61.7103 42.7544 58.6251 48.1772 56.0122 53.8606C55.963 53.9678 55.8079 53.8879 55.8311 53.7843C57.2152 47.6368 60.4509 42.0534 64.1352 37.0087L64.2753 36.8174C68.002 31.7443 72.285 26.6446 77.363 22.8794Z" fill="black"/>
<path fill-rule="evenodd" clip-rule="evenodd" d="M116.625 89.7485C115.275 89.7595 113.757 89.2525 112.742 88.8555L112.477 88.7505C111.598 88.3985 110.696 87.9945 110.023 87.3165C109.808 87.0965 109.579 86.8465 109.462 86.5845C109.394 86.4305 109.366 86.2715 109.432 86.1135C109.675 86.0895 109.906 86.0585 110.124 86.0185C110.228 85.9995 110.328 85.9795 110.404 85.9795C110.686 85.9775 110.964 86.0135 111.242 86.0485C111.283 86.0535 111.323 86.0585 111.363 86.0635C111.58 86.0905 111.796 86.1195 112.011 86.1485C112.637 86.2325 113.26 86.3165 113.895 86.3465C114.354 86.3685 114.834 86.3425 115.319 86.3165C116.578 86.2475 117.879 86.1545 118.848 87.0355C119.102 87.2665 119.208 87.5575 119.208 87.8535C119.208 88.2135 119.056 88.5805 118.825 88.8685C118.302 89.5185 117.497 89.7415 116.625 89.7485ZM123.988 78.3945C123.401 79.2765 122.422 79.8435 121.081 79.7815C118.415 79.6595 115.234 78.6535 113.002 77.1995C112.42 76.8205 112.043 76.2145 111.976 75.5665L111.856 74.4125L111.206 75.3735C111.138 75.4735 111.07 75.5735 111.001 75.6735C110.813 75.9485 110.625 76.2235 110.448 76.5055C109.767 77.5875 109.142 78.6815 108.575 79.8275C108.174 80.6395 107.88 81.5475 107.586 82.4645C107.089 84.0115 106.609 85.5325 105.548 86.6195C105.387 86.7845 105.141 86.8435 104.915 86.8145C104.716 86.7885 104.521 86.6905 104.425 86.4965C103.157 83.9165 104.863 80.8075 106.247 78.6455L106.393 78.4195C107.676 76.4665 109.772 73.8815 112.172 73.5305L112.446 73.9685L112.846 73.7015C113.499 73.2655 114.362 73.2865 115.117 73.6275L115.872 73.9685C117.277 74.5995 118.664 75.1815 120.185 75.5005C120.296 75.5235 120.406 75.5455 120.517 75.5655C120.621 75.5845 120.726 75.6025 120.832 75.6185C120.809 75.5155 120.785 75.4115 120.76 75.3085C120.735 75.1995 120.709 75.0905 120.681 74.9815C120.652 74.8695 120.621 74.7575 120.591 74.6465C120.469 74.2025 120.331 73.7625 120.168 73.3325C119.554 71.7135 118.574 70.1995 117.62 68.7555L117.507 68.5855C117.371 68.3785 117.221 68.1625 117.066 67.9395C116.322 66.8685 115.497 65.7055 115.439 64.5375C116.426 64.5995 117.252 65.2135 117.98 65.7475C118.978 66.4805 119.903 67.3185 120.742 68.2285C122.37 69.9955 123.83 72.2525 124.471 74.5865C124.838 75.9235 124.677 77.3615 123.988 78.3945ZM97.9458 65.0795V65.0325C97.9488 63.6845 98.7338 60.6071 100.673 60.6071C101.885 60.6071 102.62 62.7015 102.748 64.8605L102.752 64.9485C102.808 66.2905 102.44 69.2245 100.673 69.2245C98.8868 69.2245 97.9648 66.4455 97.9458 65.0795ZM126.5 64.6565L126.501 64.6095C126.498 63.2615 125.713 60.1844 123.774 60.1844C122.592 60.1844 121.863 62.1755 121.71 64.2755L121.699 64.4375C121.623 65.7345 121.967 68.8015 123.774 68.8015C125.559 68.8015 126.482 66.0225 126.5 64.6565ZM104.478 55.9587C104.221 55.9888 103.965 56.0283 103.71 56.069C102.964 56.1878 102.222 56.3305 101.486 56.4968C100.086 56.8128 98.6988 57.2117 97.3368 57.6626C96.0628 58.0847 94.8088 58.5616 93.5548 59.0386C93.4878 59.064 93.4208 59.0895 93.3548 59.1149C92.9118 59.2833 92.4708 59.472 92.0278 59.6613C91.3548 59.9494 90.6778 60.2394 89.9868 60.458C91.8068 57.9417 94.6098 56.0772 97.3068 54.7429C98.8458 53.9817 100.479 53.3679 102.121 52.8649L103.036 52.5899C104.382 52.1924 105.855 51.8253 107.12 52.6178C107.62 52.9313 107.94 53.4186 108.04 53.9454C108.139 54.462 108.026 55.0159 107.67 55.4781C107.359 55.8808 106.972 56.1102 106.56 56.1888C106.105 56.2755 105.623 56.1803 105.184 55.9458C104.833 55.9197 104.729 55.9291 104.625 55.9407L104.478 55.9587ZM124.738 56.2147C123.837 56.0187 122.945 55.94 122.02 55.9682C121.602 55.9808 121.197 56.0454 120.793 56.1104C120.167 56.2114 119.543 56.3158 118.867 56.1932C118.515 56.1292 118.215 55.9231 117.983 55.6541C117.712 55.3395 117.533 54.9375 117.476 54.5553C117.416 54.1604 117.475 53.8151 117.622 53.5102C117.794 53.15 118.085 52.8464 118.436 52.5804C119.499 51.7755 121.322 51.9691 122.577 52.1318C123.816 52.293 125.049 52.6775 126.145 53.2883C127.226 53.8911 128.166 54.7031 128.899 55.6957C129.517 56.5324 129.809 57.4953 130.109 58.4757C128.695 57.2887 126.53 56.6038 124.738 56.2147Z" fill="black"/>
<path fill-rule="evenodd" clip-rule="evenodd" d="M96.7019 91.3435C98.4119 87.3355 102.145 84.3895 106.444 83.3115C109.6 82.5225 112.913 82.5485 116.13 82.8615C117.816 83.0245 119.624 83.1575 121.213 83.7835C122.569 84.3185 123.675 85.3305 124.506 86.5175C125.496 87.9245 126.169 89.5345 126.641 91.1845C126.709 91.4195 126.772 91.6555 126.831 91.8935C126.625 93.1385 126.189 94.1985 125.036 94.9805C123.911 95.7455 122.569 96.0585 121.231 96.1695C121.099 96.1065 120.972 96.0415 120.856 95.9745C118.771 94.7805 117.303 91.9585 114.672 92.3405C112.323 92.6815 110.777 95.6385 109.38 97.3715C104.897 97.8945 100.416 96.5465 96.7678 93.9815C96.5828 93.1045 96.5719 92.2185 96.7019 91.3435ZM129.878 88.3025C129.519 87.2965 129.067 86.3205 128.532 85.4025C126.762 82.3645 124.044 79.9435 120.818 78.5595C113.187 75.2915 103.312 77.5955 97.1499 82.9565C95.0439 84.7895 92.9158 87.4825 92.2718 90.3795C92.0798 90.4175 91.8979 90.5175 91.7489 90.6585C87.2959 87.8535 82.7109 85.1555 79.1229 81.2685C76.5169 78.4435 74.7049 75.1005 73.5949 71.4275C73.5039 71.1255 73.0168 71.1695 73.0318 71.5045C73.0358 71.5825 73.0399 71.6605 73.0439 71.7385C72.9979 71.5945 72.7779 71.6685 72.7609 71.8085C72.1639 76.2705 71.4168 81.0015 72.1048 85.4865C72.5168 88.1635 73.7318 90.1225 75.3568 92.2385C77.0968 94.5065 79.0679 96.6155 81.0829 98.6385C82.3609 99.9225 83.6969 101.404 85.2619 102.346C87.0829 103.44 89.1488 104.271 91.0918 105.115C93.0688 105.976 95.0749 106.772 97.1199 107.462C101.207 108.845 105.431 109.802 109.729 110.221C113.17 110.555 117.103 110.919 120.4 109.624C122.928 108.632 124.968 106.838 126.586 104.679C128.348 102.329 129.741 99.6505 130.511 96.8275C131.311 93.8945 130.046 88.7755 129.878 88.3025Z" fill="black"/>
<path fill-rule="evenodd" clip-rule="evenodd" d="M127.143 53.8942C132.101 53.8942 134.931 54.961 135.968 55.0441L135.999 55.0464C136.431 55.074 136.818 55.11 137.224 55.2671C138.716 55.8422 138.96 57.4084 138.088 58.3954C138.027 60.4379 138.296 62.8245 137.835 64.8735C137.267 73.5115 133.206 74.9695 130.898 75.5015C129.739 75.7685 128.365 75.8745 127.135 75.5925C125.035 75.5145 122.959 74.8565 121.182 73.7115C118.708 72.1155 116.871 69.6625 116.275 66.7505C115.992 65.3625 115.86 63.9185 116.014 62.5075L116.037 62.3135C115.233 61.9285 114.301 61.8555 113.34 61.8215C112.882 61.8055 112.429 61.7905 111.99 61.8105C111.561 61.8585 111.136 61.9225 110.711 62.0095C110.246 62.1495 109.807 62.3805 109.402 62.7475L109.374 63.2825C109.298 64.6195 109.122 65.9605 108.851 67.2725C108.452 69.2085 107.809 71.0565 106.441 72.4295C105.978 73.1215 105.405 73.7385 104.709 74.2735C102.183 76.2195 98.7499 76.9345 95.5989 76.6655C89.2019 76.1195 85.5049 71.0395 84.6529 68.8685L84.6019 68.7365C83.9859 67.1225 83.4959 65.0285 81.5509 64.6815L81.1369 64.6075C80.2499 64.4405 79.4309 64.2085 78.9099 63.3425C78.6819 62.9635 78.5649 62.5405 78.5359 62.1095C78.2329 62.1335 77.9289 62.1555 77.6269 62.1775C75.2169 62.6865 60.7603 63.1195 59.6064 63.1195C59.6064 63.1195 57.3883 64.0535 56.4519 63.3295C55.8028 62.8265 55.5892 62.1555 55.9465 61.3961C56.4857 60.2529 58.973 59.5653 60.0775 59.3476C60.0775 59.3476 77.9009 59.4957 79.1839 59.2524C79.9779 58.4336 81.3969 58.5457 82.5839 58.4162C83.5659 57.7157 84.9399 57.2465 86.0249 56.9324C86.2459 56.8486 86.4649 56.7675 86.6779 56.6911C88.6679 55.9823 90.7359 55.6068 92.8349 55.4052C94.9999 55.1994 97.1719 55.2925 99.3239 55.5875C100.231 55.7106 101.13 55.8698 102.022 56.078C103.62 56.2887 105.208 56.6357 106.806 57.0474L107.126 57.1306C108.809 57.572 110.539 57.9538 112.281 57.6546C113.699 57.4126 115.063 56.8665 116.371 56.276L116.541 56.1987C119.417 54.8853 123.907 53.8942 127.143 53.8942ZM101.849 58.6967C100.788 58.4632 100.335 60.0997 101.399 60.3337C102.153 60.4995 102.792 60.8797 103.223 61.5239L103.269 61.5939C103.848 62.5155 105.312 61.6648 104.729 60.737C104.073 59.6928 103.054 58.9615 101.849 58.6967ZM132.924 57.6819C132.55 57.4183 131.984 57.614 131.767 57.9865C131.528 58.3966 131.684 58.8532 132.035 59.1216L132.07 59.1477C132.392 59.3743 132.705 59.7804 132.744 60.1965L132.747 60.2485C132.789 61.3375 134.481 61.343 134.439 60.2485C134.398 59.1779 133.778 58.2834 132.924 57.6819Z" fill="black"/>
</svg>
