<svg width="196" height="252" viewBox="0 0 196 252" fill="none" xmlns="http://www.w3.org/2000/svg">
<path fill-rule="evenodd" clip-rule="evenodd" d="M69.6906 104.739C70.0526 104.023 71.0106 104.116 71.6436 104.441C73.5416 105.829 71.5556 108.519 71.0306 110.213C69.6806 113.498 67.3346 116.709 64.0976 118.244C64.3656 121.51 64.6696 124.769 64.7816 128.044C68.9216 133.181 75.9006 135.056 82.0966 136.498C91.8276 139.19 102.811 133.674 106.095 124.052C102.357 121.927 101.148 116.364 102.263 112.483C102.36 112.21 102.783 112.09 102.933 112.394C103.956 114.5 103.82 117.069 104.983 119.15C116.153 120.22 130.568 124.436 137.885 133.472C141.128 137.993 142.412 143.873 144.009 149.112C147.417 159.914 150.132 170.934 153.474 181.746L153.868 179.701C154.948 174.065 155.929 168.353 155.2 162.621L155.187 162.347C154.949 157.786 153.522 149.312 157.057 146.233C160.255 143.788 164.888 141.824 168.901 142.951C176.043 139.771 182.206 134.418 189.812 132.333C192.153 131.851 195.521 132.422 194.967 135.598C193.434 141.155 187.013 143.311 182.623 146.176C185.437 146.939 188.867 150.362 186.669 153.347C186.65 153.4 186.633 153.44 186.616 153.472C188.399 154.262 188.648 156.249 188.211 157.953C188.167 158.403 188.048 158.016 188.313 158.424C190.324 160.322 189.435 165.613 186.405 165.791C186.603 168.298 184.993 170.733 182.955 172.1C180.757 173.574 177.58 173.637 175.761 175.653C171.49 183.187 170.016 192.082 169.55 200.71C172.366 201.764 174.892 204.917 172.334 207.591C172.284 207.597 172.233 207.603 172.182 207.607C170.699 211.566 170.127 215.786 169.342 219.921C168.136 226.975 164.992 233.452 160.976 239.329C156.333 247.108 143.847 245.875 137.557 240.855C137.583 242.172 137.799 243.481 137.378 244.754C136.755 246.128 135.238 245.534 135.088 244.181C131.763 246.052 130.979 239.877 134.676 240.857C134.391 236.393 134.227 231.923 134.093 227.451C129.908 228.806 129.728 221.861 134.008 223.249L134.003 221.329C133.972 206.606 134.134 191.833 136.076 177.226C136.256 176.133 136.56 175.076 136.738 173.99C136.757 173.878 136.932 173.91 136.933 174.017C137.233 194.467 135.897 214.961 137.291 235.419C138.452 235.773 138.914 237.105 139.774 237.881C141.681 239.643 144.279 240.501 146.819 240.799C153.933 241.797 157.004 239.624 160.171 233.439C158.743 234.394 156.812 232.707 157.683 231.195L157.71 231.15C158.615 229.548 161.169 230.508 160.845 232.301C164.03 227.199 165.697 221.446 166.928 215.609L167.095 214.912C167.693 212.433 168.47 209.594 169.907 207.352C161.143 205.117 152.57 198.309 151.199 188.969C148.974 195.963 145.959 202.799 143.086 209.6C142.199 211.965 141.829 214.508 140.557 216.702C140.262 217.209 139.512 217.078 139.344 216.543C138.2 211.427 141.667 206.561 143.466 201.956C144.936 199.353 149.154 187.467 151.769 187.438C148.83 174.553 144.911 161.764 141.178 149.038C137.568 131.856 130.213 128.543 114.63 123.133C117.441 137.461 130.273 151.331 123.445 166.36L123.279 166.75C122.58 168.407 122 170.077 122.488 171.895C122.961 173.66 124.038 175.193 124.901 176.78C129.719 185.745 126.402 196.216 124.539 205.553C122.186 216.502 119.861 227.462 117.428 238.395C116.948 240.576 116.637 242.822 115.913 244.936C115.539 246.027 113.674 245.923 113.794 244.651C114.024 242.182 114.717 239.775 115.225 237.351C118.254 221.656 122.353 206.146 124.959 190.382C126.635 178.713 120.035 176.92 120.282 169.38C121.179 165.524 123.553 162.083 123.417 157.974C123.945 145.395 114.786 135.018 113.655 122.784L111.659 122.071C110.661 121.714 109.664 121.354 108.671 120.985C113.9 157.575 112.312 194.964 109.698 231.735C109.164 233.432 109.672 245.284 107.433 244.232C107.32 244.895 106.968 245.546 106.203 245.542C99.2586 245.606 92.3116 245.716 85.3676 245.799C82.0276 245.491 77.4356 246.766 74.5946 244.839C71.3146 243.902 70.9376 235.015 70.0606 231.847L69.7186 229.543C64.1446 191.9 59.1566 153.48 63.1626 115.464C57.5884 115.678 56.4378 121.697 56.0244 126.079C54.9907 135.751 48.7439 144.08 48.4443 153.863C48.4189 156.237 48.8668 158.536 49.8152 160.715C52.3314 166.054 56.6831 172.227 53.4306 178.19C49.5841 182.832 49.917 184.054 51.3285 189.79C55.2997 208.755 61.8946 226.987 68.1686 245.272C66.8056 252.38 58.6063 225.995 57.8349 224.006C54.2055 225.832 52.223 219.773 56.3858 219.341C53.712 210.388 51.2514 201.368 49.2027 192.248L49.1485 191.991C48.2435 187.778 46.4635 182.844 49.4694 179.107C57.2199 171.266 44.3489 162.502 45.9724 153.003C44.5705 154.043 42.4483 152.949 42.4802 151.202C42.4166 149.236 45.057 148.228 46.3276 149.729C47.6339 142.022 52.1789 135.295 53.5542 127.611L53.6163 127.25C54.0824 124.534 54.2138 121.677 55.5471 119.202C53.7321 120.381 51.7992 121.334 49.8112 122.175C53.3658 125.145 46.4824 127.856 47.052 123.268C27.5588 128.91 23.1528 136.777 15.9957 154.846C17.3326 153.546 19.6227 155.228 18.8224 156.885C18.184 158.631 15.3988 158.12 15.3999 156.26L15.0737 157.038C10.7337 167.419 6.78364 178.053 4.79854 189.163C8.69265 188.613 7.70115 194.839 4.17295 193.083C2.75705 202.964 2.73464 212.984 2.90764 222.945C6.19225 221.222 6.29115 227.077 2.93935 225.407C3.06195 233.57 3.24144 241.732 3.37674 249.894C3.40414 251.632 0.725243 251.623 0.683043 249.894C0.370143 237.353 -0.200056 224.788 0.0710438 212.242C-0.183956 190.468 6.07334 169.481 15.3965 149.975C23.6459 127.516 35.0408 124.962 56.0055 118.432C57.9408 115.558 62.0756 112.84 65.4486 114.645C67.3356 111.597 68.2946 107.987 69.6906 104.739ZM33.7716 183.015C33.8498 182.738 34.2448 182.807 34.2575 183.08C34.4329 186.603 34.2765 190.15 34.0357 193.688C33.8897 195.848 33.7103 198.005 33.5582 200.151C33.1547 205.811 32.8293 211.477 32.5822 217.148C32.6688 217.112 32.7575 217.08 32.8505 217.055C33.2772 216.938 33.7042 216.938 34.1308 217.055C34.5113 217.161 34.844 217.347 35.1306 217.615L35.1913 217.674C35.4258 217.891 35.5927 218.149 35.6899 218.447C35.8284 218.713 35.8984 218.996 35.8983 219.299L35.8967 219.375C35.8948 219.81 35.7871 220.214 35.5674 220.591C35.354 220.952 35.0667 221.239 34.7054 221.455C34.3293 221.673 33.9256 221.78 33.4906 221.782C33.4441 221.787 33.3974 221.791 33.3512 221.793C33.0277 221.806 32.7258 221.738 32.4467 221.592L32.4047 221.58C32.2991 224.456 32.2124 227.335 32.1491 230.213C32.092 232.722 32.016 235.231 31.9653 237.739L31.9417 238.994L31.8957 241.768C31.8808 242.908 31.8881 244 31.5005 245.076L31.454 245.2C31.1751 245.919 30.9577 246.918 30.2115 247.318C29.616 247.637 28.8131 247.519 28.4709 246.897C28.1836 246.377 28.4327 245.629 28.8575 245.278C28.8491 245.255 28.8364 245.234 28.8258 245.211C28.7603 245.02 28.6608 244.841 28.6019 244.649C28.4157 244.04 28.4667 243.391 28.4646 242.759C28.4646 241.643 28.5024 240.527 28.5322 239.413C28.5977 237.042 28.6737 234.673 28.7665 232.304C29.0805 224.356 29.6718 216.408 30.349 208.482L30.5788 205.807C30.885 202.25 31.2019 198.689 31.6505 195.15C31.6714 194.981 31.6927 194.812 31.716 194.643C31.4751 194.523 31.2512 194.356 31.0735 194.17C30.3618 193.422 29.93 192.304 29.5252 191.341L29.4322 191.122C28.9927 190.095 28.5871 189.055 28.3779 187.952L28.3579 187.85C28.2625 187.38 28.0742 186.548 28.5723 186.32C28.8322 186.202 28.9967 186.286 29.0815 186.546C29.0922 186.58 29.0834 186.618 29.0646 186.648C29.2695 186.962 29.5906 187.256 29.7934 187.548L30.4876 188.541L30.8308 189.04C31.266 189.681 31.7308 190.293 32.2103 190.898C32.5883 188.243 33.0512 185.599 33.7716 183.015ZM62.2376 242.169C63.1066 241.489 64.5196 241.859 64.5196 243.114C64.5196 244.376 63.1046 244.739 62.2376 244.059L62.1946 244.027L62.1536 243.993C61.6816 243.625 61.6656 242.665 62.1176 242.265L62.1536 242.235C62.1806 242.212 62.2086 242.191 62.2376 242.169ZM24.412 239.716L24.4866 239.718C24.8796 239.718 25.2451 239.817 25.5852 240.016C25.7331 240.128 25.8789 240.242 26.0267 240.356C26.2972 240.626 26.4831 240.948 26.5866 241.318L26.665 241.897C26.6753 242.197 26.6141 242.476 26.4767 242.736C26.388 243.006 26.238 243.241 26.0267 243.438C25.8282 243.651 25.5958 243.801 25.3255 243.888C25.0871 244.013 24.833 244.077 24.5612 244.077L24.4866 244.076C24.0917 244.076 23.726 243.977 23.3859 243.778C23.238 243.666 23.0922 243.552 22.9443 243.438C22.676 243.167 22.488 242.846 22.3847 242.476C22.3591 242.283 22.334 242.089 22.3063 241.897C22.296 241.597 22.3591 241.318 22.4943 241.058C22.5831 240.787 22.7331 240.553 22.9443 240.356C23.1432 240.143 23.3753 239.992 23.6458 239.906C23.884 239.78 24.1399 239.716 24.412 239.716ZM123.31 235.698L123.864 235.772C124.394 235.892 124.82 236.283 125.106 236.729C125.258 236.968 125.34 237.226 125.353 237.503C125.414 237.778 125.401 238.054 125.315 238.331C125.251 238.602 125.127 238.838 124.943 239.039C124.88 239.139 124.806 239.23 124.721 239.31C124.548 239.599 124.286 239.789 124.015 239.984C123.787 240.13 123.54 240.208 123.274 240.221C123.099 240.267 122.921 240.267 122.744 240.221C122.479 240.208 122.232 240.13 122.004 239.984C121.869 239.881 121.734 239.775 121.601 239.671C121.483 239.534 121.372 239.392 121.269 239.244C121.199 239.082 121.132 238.921 121.064 238.76C120.939 238.373 121.001 238.031 121.068 237.644C121.079 237.579 121.096 237.52 121.119 237.456L121.165 237.333C121.286 237.012 121.351 236.903 121.567 236.624L121.649 236.514C121.69 236.459 121.732 236.405 121.78 236.357C121.915 236.218 122.108 236.101 122.26 235.981C122.585 235.793 122.936 235.7 123.31 235.698ZM51.5807 234.344L51.6512 234.345C51.9576 234.347 52.245 234.423 52.511 234.578L52.8575 234.846C53.0688 235.06 53.2145 235.309 53.2969 235.599C53.3159 235.75 53.3373 235.903 53.3582 236.053C53.3667 236.288 53.3183 236.507 53.2103 236.712C53.1429 236.924 53.0244 237.105 52.8575 237.262C52.7035 237.427 52.5195 237.545 52.3082 237.615C52.1238 237.711 51.9255 237.762 51.7147 237.762L51.6512 237.761C51.3428 237.761 51.0554 237.682 50.7892 237.528L50.4427 237.262C50.2314 237.048 50.0857 236.797 50.0033 236.507C49.9843 236.355 49.9631 236.205 49.942 236.053C49.9336 235.818 49.9821 235.599 50.0899 235.396C50.1596 235.184 50.2758 235 50.4427 234.846C50.5969 234.679 50.7807 234.561 50.992 234.493C51.1764 234.396 51.3711 234.347 51.5807 234.344ZM37.638 233.646C38.0794 233.641 38.5275 233.766 38.8887 234.022C39.2394 234.271 39.5054 234.54 39.6768 234.943C39.7232 235.053 39.7695 235.161 39.8099 235.271C39.9915 235.755 40.0254 236.241 39.7739 236.714C39.531 237.173 39.007 237.374 38.5378 237.511C38.1408 237.63 37.6908 237.649 37.2958 237.507C37.0993 237.437 36.907 237.363 36.7296 237.255C36.3979 237.05 36.2183 236.807 35.9965 236.507C35.8232 236.211 35.7366 235.89 35.7366 235.548C35.7366 235.203 35.8232 234.884 35.9965 234.586C36.3364 234.005 36.9662 233.65 37.638 233.646ZM15.2435 234.054C15.8015 234.054 16.2914 234.311 16.6275 234.747C16.9675 235.188 17.0921 235.738 16.9421 236.286C16.7837 236.865 16.3043 237.372 15.7104 237.518C15.2712 237.625 14.9118 237.621 14.4745 237.547C14.1048 237.484 13.8219 237.264 13.5386 237.035C13.2154 236.771 13.1161 236.29 13.1689 235.901C13.2196 235.512 13.3994 235.258 13.6719 235.028L13.6738 235.022L13.5724 235.1C13.6106 235.066 13.6485 235.03 13.6867 234.994C13.6992 234.973 13.7097 234.95 13.7203 234.926C13.8766 234.66 14.0879 234.451 14.352 234.294C14.6287 234.134 14.9245 234.054 15.2435 234.054ZM145.298 227.652C145.604 227.569 145.913 227.569 146.219 227.652C146.445 227.705 146.642 227.808 146.809 227.962C146.978 228.073 147.116 228.214 147.221 228.389L147.254 228.449C147.495 228.859 147.533 229.328 147.43 229.784C147.301 230.348 146.781 230.862 146.219 230.995L146.2 230.999L146.181 231.004C145.953 231.076 145.723 231.086 145.495 231.033C145.264 231.023 145.051 230.955 144.855 230.828C144.605 230.668 144.396 230.461 144.236 230.211C144.109 230.013 144.041 229.799 144.03 229.569C143.99 229.417 143.99 229.264 144.03 229.112C144.041 228.882 144.109 228.668 144.236 228.47L144.506 228.121L144.533 228.098C144.749 227.882 145.004 227.734 145.298 227.652ZM124.028 216.467C126.797 216.467 126.793 220.766 124.028 220.766C121.258 220.766 121.262 216.467 124.028 216.467ZM22.6229 215.924C22.9147 215.858 23.2062 215.871 23.4957 215.962C23.671 216.036 23.8443 216.11 24.0175 216.182L24.4612 216.524C24.5436 216.594 24.5837 216.67 24.6598 216.769L24.7548 216.894C24.8923 217.078 24.8955 217.117 25.0464 217.509C25.1478 217.885 25.1478 218.261 25.0464 218.638C24.9976 218.819 24.9238 218.991 24.8288 219.149C24.7419 219.301 24.6379 219.435 24.5208 219.558L24.4612 219.618C24.2626 219.832 24.0281 219.982 23.7577 220.071C23.5865 220.17 23.4027 220.219 23.2062 220.219C22.9147 220.284 22.6229 220.271 22.3337 220.18C22.1584 220.107 21.9851 220.033 21.8117 219.961L21.3682 219.618L21.026 219.174L20.9168 218.914L20.8062 218.652L20.7281 218.071C20.7175 217.769 20.7788 217.49 20.9159 217.228C20.9687 217.044 21.0619 216.881 21.1969 216.746C21.2943 216.581 21.425 216.45 21.59 216.353C21.725 216.218 21.8879 216.125 22.0717 216.072C22.2429 215.973 22.4267 215.924 22.6229 215.924ZM159.613 212.853C159.844 212.845 160.059 212.893 160.258 212.999C160.328 213.022 160.395 213.052 160.461 213.086C160.716 213.235 160.919 213.438 161.069 213.692C161.192 213.887 161.259 214.096 161.27 214.322C161.316 214.526 161.312 214.731 161.256 214.935L161.238 214.996C161.192 215.163 161.122 215.317 161.029 215.459C161.02 215.476 161.01 215.493 160.997 215.507C160.856 215.732 160.668 215.915 160.435 216.053C160.178 216.201 159.901 216.277 159.601 216.279C159.003 216.279 158.487 215.956 158.173 215.459C158.128 215.389 158.103 215.3 158.071 215.228C158.044 215.161 157.999 215.074 157.976 214.996C157.896 214.696 157.896 214.396 157.976 214.096C158.029 213.876 158.128 213.684 158.278 213.521C158.399 213.337 158.557 213.191 158.754 213.086C158.997 212.943 159.259 212.867 159.537 212.855L159.613 212.853ZM42.6723 210.75C42.9648 210.67 43.2557 210.664 43.5463 210.732L43.619 210.75C43.8511 210.805 44.0521 210.911 44.2251 211.067C44.4173 211.194 44.5718 211.361 44.6835 211.568C44.8443 211.845 44.9246 212.145 44.9265 212.466C44.9246 212.788 44.8443 213.088 44.6835 213.364C44.5251 213.633 44.3117 213.844 44.0436 214.003L43.8112 214.115C43.6168 214.237 43.4098 214.303 43.1856 214.313C43.0359 214.354 42.8856 214.354 42.738 214.313C42.5856 214.313 42.4441 214.275 42.3133 214.199C42.1697 214.159 42.0469 214.087 41.9413 213.981C41.7575 213.863 41.614 213.707 41.5084 213.51L41.337 213.106L41.2781 212.658L41.337 212.213L41.4302 211.993C41.5145 211.69 41.6668 211.429 41.8885 211.207C42.1103 210.987 42.3723 210.834 42.6723 210.75ZM147.445 207.185C147.753 207.087 148.059 207.075 148.366 207.142C148.572 207.142 148.767 207.195 148.947 207.301C149.143 207.356 149.312 207.453 149.456 207.597C149.707 207.759 149.904 207.975 150.049 208.243L150.282 208.795C150.421 209.152 150.37 209.679 150.286 210.038C150.216 210.334 150.081 210.592 149.88 210.811C149.779 210.982 149.644 211.118 149.472 211.219C149.277 211.397 149.051 211.524 148.795 211.599L148.725 211.619L148.699 211.625C148.695 211.627 148.691 211.627 148.687 211.627C148.685 211.629 148.68 211.629 148.678 211.629C148.577 211.655 148.473 211.669 148.366 211.674C148.059 211.741 147.753 211.729 147.445 211.631C147.263 211.555 147.079 211.477 146.895 211.399C146.739 211.281 146.584 211.16 146.428 211.039C146.308 210.883 146.187 210.727 146.067 210.573C145.898 210.308 145.807 210.021 145.795 209.714C145.739 209.51 145.739 209.307 145.795 209.101C145.795 208.892 145.847 208.7 145.951 208.52C146.044 208.233 146.202 207.986 146.428 207.776C146.584 207.656 146.739 207.535 146.895 207.417C147.079 207.339 147.263 207.261 147.445 207.185ZM12.6979 199.618C13.0167 199.532 13.3359 199.532 13.6549 199.618L14.0836 199.798C14.2949 199.912 14.462 200.066 14.5887 200.263C14.7493 200.436 14.8568 200.641 14.9118 200.876C15.0366 201.197 15.0218 201.706 14.9225 202.034C14.8106 202.406 14.6373 202.702 14.369 202.981C13.9232 203.442 13.2385 203.575 12.6324 203.435C12.4653 203.397 12.3068 203.323 12.1632 203.232C11.7049 202.949 11.3965 202.455 11.3986 201.907C11.3986 201.848 11.4028 201.789 11.4113 201.73C11.3817 201.609 11.3709 201.484 11.3754 201.353L11.4387 200.876L11.4428 200.863C11.5275 200.561 11.6796 200.299 11.9012 200.077C12.1062 199.874 12.3452 199.727 12.6183 199.639L12.6873 199.618H12.6979ZM172.119 152.16C171.542 147.426 169.372 142.333 162.753 145.113L162.262 145.297C160.624 145.918 158.716 146.732 157.719 148.165C157.032 149.152 157.264 151.065 157.17 152.217C156.738 155.962 156.97 159.702 157.419 163.431C157.999 172.172 156.162 181.229 152.505 189.173C156.165 195.099 161.064 200.625 167.747 203.095C168.03 196.358 169.349 189.745 170.752 183.171L170.807 182.884C171.368 179.92 171.649 176.878 173.595 174.412C177.554 170.113 182.999 172.546 185.604 165.639C185.057 165.363 185.359 164.416 186.018 164.598C188.303 165.003 188.674 160.766 187.11 159.745C185.481 158.751 187.121 156.917 186.428 155.594C186.041 155.023 185.207 155.004 184.828 154.347C183.826 151.927 188.844 150.376 182.943 147.648C181.735 147.219 180.385 147.485 179.167 147.48C177.375 147.648 175.95 148.911 174.312 149.308C176.096 153.93 171.594 158.381 167.53 154.689C165.319 156.78 162.846 161.546 168.221 159.325C170.852 157.568 173.117 155.297 176.171 154.216L176.236 154.196C177.369 153.824 182.33 151.413 182.084 153.5C180.226 155.294 177.161 155.273 175.009 156.729C172.025 158.109 170.117 161.454 166.545 161.408C165.722 166.41 171.396 163.367 173.509 161.987L174.095 161.669C177.075 160.059 180.1 158.566 183.576 158.547C184.535 158.54 184.531 160.02 183.576 160.032C179.046 160.061 175.36 162.893 171.565 164.999C171.192 167.919 175.466 166.64 177.088 166.21C178.788 165.971 181.519 164.131 183.008 165.103C183.59 166.599 181.028 166.487 180.136 166.941C184.208 168.898 180.641 170.13 179.549 167.123L179.229 167.232C176.503 168.149 169.892 170.035 170.678 165.415C169.68 165.857 168.464 166.121 167.361 165.876C164.611 169.945 160.225 168.37 166.6 165.597C165.164 164.929 164.684 162.348 166.064 161.387C161.046 161.081 164.771 155.814 166.848 154.058C166.652 153.86 166.462 153.658 166.285 153.453C165.088 154.024 163.829 154.37 162.483 154.493C161.194 154.609 160.907 152.415 162.179 152.236C163.541 152.043 164.796 151.68 165.996 150.995C167.815 150.209 168.435 153.585 170.256 153.705C171.248 153.901 171.92 153.03 172.119 152.16ZM129.87 195.717C130.309 195.717 130.7 195.901 131.019 196.192C131.338 196.484 131.475 196.922 131.494 197.34C131.502 197.564 131.456 197.773 131.355 197.968C131.289 198.168 131.177 198.342 131.019 198.49C130.723 198.783 130.286 198.965 129.87 198.965C129.43 198.965 129.039 198.781 128.72 198.49C128.401 198.196 128.264 197.76 128.245 197.34C128.236 197.118 128.283 196.909 128.384 196.714C128.443 196.534 128.54 196.373 128.674 196.237L128.72 196.192C129.016 195.896 129.453 195.717 129.87 195.717ZM143.185 185.693L143.255 185.694C143.627 185.697 143.972 185.789 144.293 185.975C144.432 186.083 144.571 186.189 144.709 186.297C144.964 186.555 145.14 186.857 145.237 187.206C145.336 187.569 145.336 187.935 145.237 188.298C145.203 188.508 145.125 188.711 145.003 188.886C144.821 189.188 144.58 189.431 144.276 189.611C143.961 189.795 143.621 189.885 143.255 189.888C142.89 189.885 142.55 189.795 142.235 189.611C141.931 189.431 141.69 189.188 141.51 188.886C141.386 188.711 141.307 188.508 141.274 188.298C141.174 187.935 141.174 187.569 141.274 187.206C141.364 186.882 141.521 186.598 141.748 186.353L141.802 186.297C141.988 186.096 142.207 185.954 142.463 185.872C142.688 185.754 142.928 185.694 143.185 185.693ZM41.565 185.806C41.7216 185.764 41.8758 185.764 42.0321 185.806C42.2645 185.817 42.4819 185.887 42.6829 186.014C42.8012 186.106 42.9195 186.198 43.0378 186.288L43.1409 186.412C43.3614 186.681 43.367 186.727 43.5362 187.136C43.6061 187.364 43.6167 187.592 43.566 187.821C43.566 187.975 43.5258 188.119 43.4496 188.252C43.4075 188.398 43.3357 188.524 43.2279 188.63C43.1517 188.759 43.0505 188.862 42.9214 188.939C42.7568 189.089 42.5624 189.192 42.3385 189.245L41.8841 189.306C41.8251 189.298 41.7638 189.29 41.7047 189.283C41.6334 189.281 41.5641 189.273 41.4963 189.26L41.4277 189.245L41.3652 189.228C41.2825 189.204 41.2019 189.172 41.1237 189.131C40.9758 189.089 40.8469 189.015 40.7369 188.905C40.5469 188.782 40.3948 188.617 40.285 188.412L40.2554 188.345C40.2152 188.273 40.1814 188.199 40.1559 188.119C40.0843 187.992 40.0483 187.857 40.0462 187.711C40.0042 187.517 40.007 187.324 40.0573 187.132L40.0758 187.068L40.2385 186.681C40.323 186.55 40.4117 186.417 40.5256 186.309C40.5942 186.248 40.762 186.118 40.8564 186.052L40.9143 186.014C41.1152 185.887 41.3329 185.817 41.565 185.806ZM16.0949 182.784C16.3991 181.586 17.971 181.208 18.8266 182.063C19.682 182.92 19.3041 184.492 18.1064 184.796L17.9689 184.83C16.8111 185.124 15.7675 184.078 16.0611 182.92L16.0949 182.784ZM161.103 173.009C161.095 172.891 161.247 172.849 161.323 172.918C162.341 173.832 162.99 174.926 164.226 175.634C165.468 176.344 166.748 176.287 168.043 176.746C168.483 176.902 168.485 177.49 168.043 177.644C165.593 178.5 161.289 175.598 161.103 173.009ZM45.9513 172.823C46.224 172.739 46.4987 172.726 46.7712 172.787C46.9571 172.787 47.1302 172.834 47.2886 172.927C47.464 172.975 47.6142 173.064 47.7428 173.191C47.8973 173.282 48.0198 173.407 48.1126 173.561C48.2945 173.76 48.417 173.992 48.4802 174.258L48.552 174.806L48.4802 175.353C48.4104 175.516 48.3407 175.681 48.2731 175.843L48.0844 176.099C47.9314 176.303 47.9069 176.306 47.5358 176.581C47.2994 176.731 47.0438 176.814 46.7712 176.824C46.5893 176.875 46.4076 176.875 46.224 176.824C46.0402 176.824 45.8668 176.778 45.7064 176.685C45.533 176.636 45.3811 176.547 45.252 176.42C45.0283 176.275 44.8529 176.082 44.7238 175.843C44.6541 175.681 44.5846 175.516 44.517 175.353L44.4428 174.806L44.517 174.258L44.521 174.241C44.6182 173.899 44.7917 173.601 45.0407 173.349L45.4508 173.032C45.6112 172.929 45.7781 172.876 45.9513 172.823ZM144.574 173.233C145.159 173.072 145.801 173.242 146.23 173.671C146.659 174.1 146.828 174.74 146.667 175.326C146.509 175.896 146.051 176.359 145.478 176.514C145.307 176.56 145.134 176.585 144.958 176.577C144.664 176.575 144.39 176.501 144.134 176.353L143.805 176.097C143.644 175.949 143.532 175.774 143.467 175.571C143.363 175.376 143.317 175.167 143.325 174.941L143.323 174.901C143.317 174.821 143.327 174.74 143.353 174.662C143.353 174.579 143.365 174.499 143.386 174.421C143.541 173.85 144.005 173.39 144.574 173.233ZM18.4126 167.51C18.6006 167.504 18.776 167.542 18.9386 167.628C19.1098 167.683 19.2555 167.776 19.3781 167.911C19.5133 168.034 19.6062 168.182 19.6612 168.351C19.7478 168.514 19.7858 168.689 19.7795 168.877C19.7795 169.125 19.7161 169.355 19.5936 169.566C19.5217 169.66 19.4499 169.752 19.3781 169.843C19.2091 170.014 19.0084 170.131 18.776 170.196L18.6408 170.243C18.4422 170.314 18.2478 170.319 18.0408 170.291C17.8231 170.262 17.6222 170.202 17.445 170.067C17.2715 169.966 17.1344 169.828 17.033 169.655L16.9168 169.38C16.8915 169.288 16.8809 169.148 16.8746 169.051C16.8746 169.036 16.8746 169.023 16.8724 169.008C16.8724 168.926 16.8978 168.725 16.9187 168.643C16.9654 168.469 17.0603 168.305 17.1682 168.165C17.2612 168.019 17.3879 167.905 17.5443 167.821L17.5582 167.81L17.5739 167.799C17.6222 167.766 17.6731 167.732 17.7239 167.696C17.9351 167.573 18.1654 167.51 18.4126 167.51ZM127.509 166.009C127.847 166.009 128.162 166.096 128.454 166.265C128.464 166.269 128.475 166.273 128.483 166.278C128.762 166.443 128.984 166.665 129.149 166.943C129.318 167.233 129.402 167.546 129.402 167.88C129.402 168.216 129.318 168.526 129.149 168.816C128.984 169.095 128.762 169.317 128.483 169.482C128.475 169.488 128.464 169.492 128.454 169.497C128.162 169.666 127.847 169.75 127.509 169.752C127.174 169.75 126.859 169.666 126.567 169.497C125.997 169.163 125.639 168.539 125.639 167.88C125.639 167.22 125.997 166.597 126.567 166.265C126.859 166.096 127.174 166.009 127.509 166.009ZM39.7735 163.565L39.831 163.564C40.0549 163.555 40.2639 163.602 40.4561 163.706C40.6569 163.771 40.8322 163.883 40.9803 164.042L41.2888 164.299L41.3783 164.372C41.393 164.384 41.4076 164.397 41.4216 164.41C41.6289 164.619 41.7704 164.864 41.8507 165.147C41.8761 165.31 41.897 165.47 41.9141 165.633C41.9604 166.056 41.7113 166.489 41.4366 166.789C41.2888 166.948 41.1132 167.06 40.9106 167.127C40.7162 167.229 40.5049 167.275 40.2808 167.267C39.8223 167.227 39.3873 167.129 39.0578 166.774C39.0195 166.732 38.9836 166.688 38.9458 166.643L38.6817 166.339C38.481 166.136 38.3414 165.897 38.2655 165.622C38.2442 165.477 38.2254 165.333 38.2064 165.189C38.1871 164.756 38.3984 164.35 38.6817 164.042C38.9433 163.756 39.3869 163.581 39.7735 163.565ZM29.1093 159.115C31.3062 159.115 31.302 162.524 29.1093 162.524C26.914 162.524 26.9182 159.115 29.1093 159.115ZM139.578 154.335L139.647 154.336C140.011 154.339 140.35 154.429 140.665 154.613L141.075 154.928C141.325 155.182 141.498 155.478 141.595 155.82C141.618 156 141.641 156.179 141.667 156.357C141.677 156.636 141.618 156.896 141.491 157.137C141.411 157.386 141.272 157.604 141.075 157.788C140.891 157.984 140.676 158.124 140.425 158.204C140.184 158.331 139.924 158.39 139.647 158.38C139.282 158.377 138.941 158.287 138.627 158.103C138.489 157.997 138.354 157.891 138.217 157.788C137.987 157.554 137.821 157.284 137.723 156.974L137.699 156.896L137.625 156.357C137.615 156.08 137.674 155.82 137.8 155.579C137.881 155.328 138.02 155.112 138.217 154.928C138.401 154.732 138.618 154.592 138.868 154.512C139.088 154.396 139.325 154.336 139.578 154.335ZM129.682 147.954C129.878 147.947 130.06 147.987 130.231 148.076C130.406 148.133 130.558 148.233 130.687 148.37C130.96 148.588 131.127 149.023 131.127 149.376C131.127 149.729 130.96 150.164 130.687 150.382C130.51 150.557 130.301 150.68 130.06 150.748L129.682 150.799C129.314 150.815 128.94 150.623 128.678 150.382C128.625 150.334 128.574 150.285 128.522 150.238C128.283 150.018 128.18 149.691 128.165 149.376C128.158 149.209 128.194 149.053 128.27 148.907C128.319 148.755 128.403 148.626 128.522 148.514C128.574 148.467 128.625 148.419 128.678 148.37C128.963 148.106 129.297 147.973 129.682 147.954ZM192.381 136.585C193.769 134.894 192.961 133.689 190.875 134.108C187.281 134.594 183.899 136.866 180.734 138.496C177.28 140.321 173.719 141.826 170.196 143.541C171.65 144.434 172.731 145.832 173.557 147.427C175.206 146.175 177.314 145.576 179.371 145.498C183.104 141.921 189.286 141.102 192.381 136.585ZM28.37 142.201C28.7464 142.203 29.0991 142.291 29.4295 142.468L29.5 142.507L29.9521 142.858C30.1719 143.061 30.3261 143.302 30.4169 143.579C30.5564 143.845 30.6197 144.135 30.6092 144.443C30.6197 144.752 30.5564 145.039 30.4169 145.305C30.3261 145.584 30.1719 145.823 29.9521 146.026C29.8275 146.189 29.6669 146.316 29.4747 146.409C29.2949 146.483 29.1176 146.559 28.9381 146.635C28.7374 146.698 28.505 146.707 28.2874 146.717C27.8923 146.715 27.5249 146.616 27.1822 146.417L26.7388 146.075C26.5254 145.876 26.3731 145.641 26.2843 145.369C26.1586 145.129 26.0949 144.872 26.0949 144.599L26.0965 144.523C26.0965 144.507 26.0965 144.488 26.0988 144.468C26.124 144.27 26.1517 144.071 26.1787 143.873C26.2486 143.581 26.3817 143.325 26.5803 143.11C26.631 143.008 26.6986 142.926 26.7855 142.858C27.0641 142.579 27.3935 142.389 27.774 142.281C27.9726 142.256 28.1712 142.228 28.37 142.201ZM126.397 136.601L126.461 136.602C126.746 136.602 127.01 136.674 127.256 136.815C127.363 136.898 127.469 136.98 127.575 137.063C127.771 137.259 127.906 137.492 127.98 137.758L128.037 138.176C128.044 138.394 127.999 138.595 127.9 138.783C127.837 138.978 127.729 139.147 127.575 139.29C127.433 139.444 127.264 139.552 127.068 139.616C126.882 139.715 126.679 139.76 126.461 139.751C126.178 139.751 125.912 139.679 125.667 139.536C125.561 139.455 125.453 139.373 125.348 139.29C125.17 139.11 125.041 138.9 124.964 138.661L124.944 138.595L124.887 138.176C124.879 137.959 124.923 137.758 125.022 137.57C125.086 137.374 125.196 137.204 125.348 137.063C125.491 136.908 125.661 136.801 125.855 136.737C126.024 136.648 126.205 136.603 126.397 136.601ZM40.7185 134.312L40.7922 134.313C41.2126 134.315 41.6034 134.421 41.9668 134.632C42.1231 134.753 42.2797 134.873 42.4358 134.996C42.7253 135.285 42.9238 135.628 43.036 136.023L43.1182 136.64C43.1309 136.961 43.0633 137.259 42.9175 137.536C42.8248 137.826 42.664 138.075 42.4358 138.286C42.2269 138.513 41.9774 138.673 41.6879 138.766C41.4112 138.912 41.1133 138.98 40.7922 138.967C40.3717 138.967 39.9809 138.861 39.6175 138.65C39.4614 138.529 39.3051 138.407 39.1466 138.286C38.8591 137.995 38.6605 137.652 38.5485 137.259L38.4661 136.64C38.4534 136.321 38.521 136.021 38.6668 135.744C38.7598 135.457 38.9203 135.205 39.1466 134.996C39.3579 134.768 39.607 134.607 39.8964 134.514C40.1519 134.379 40.4253 134.313 40.7185 134.312ZM118.947 128.501C119.139 128.45 119.331 128.45 119.523 128.501C119.811 128.514 120.079 128.6 120.328 128.759L120.766 129.097C120.772 129.103 120.778 129.11 120.785 129.118C121.049 129.384 121.232 129.699 121.334 130.061L121.41 130.629C121.421 130.923 121.359 131.198 121.226 131.452C121.147 131.695 121.016 131.908 120.835 132.091L120.766 132.159C120.569 132.371 120.339 132.521 120.07 132.607C119.902 132.707 119.718 132.756 119.523 132.756C119.236 132.821 118.947 132.808 118.659 132.717C118.488 132.643 118.315 132.571 118.142 132.5L118.087 132.468C117.434 132.111 117.03 131.363 117.03 130.629C117.03 129.896 117.434 129.145 118.087 128.788C118.106 128.78 118.123 128.769 118.142 128.759C118.391 128.6 118.659 128.514 118.947 128.501Z" fill="black"/>
<path fill-rule="evenodd" clip-rule="evenodd" d="M118.34 2.0619L118.46 1.9685C119.763 0.946297 120.991 -0.393304 122.827 0.108996C124.334 0.521196 125.094 1.7681 125.417 3.2751C125.876 2.7953 126.322 2.29859 126.757 1.78499C127.94 0.390095 130.583 1.11289 130.936 2.89039C131.65 6.47069 131.686 10.1143 130.991 13.701C130.885 14.2441 130.76 14.7852 130.615 15.3199C131.407 14.3329 132.144 13.3036 132.805 12.2194C133.522 11.0422 135.14 11.6255 135.252 12.883C135.281 13.2085 135.298 13.5382 135.303 13.87C135.808 14.0476 136.156 14.5675 136.023 15.2058C135.288 18.7184 134.356 22.1824 133.236 25.5873C135.036 24.632 137.054 24.0656 138.953 24.7398C141.97 25.8134 142.689 29.1063 142.099 31.9405C141.358 35.5039 139.025 38.486 136.017 40.441C135.66 40.9778 135.307 41.5189 134.971 42.0705C134.965 43.6282 134.681 45.1816 134.111 46.6251C133.469 48.2462 132.336 49.6474 130.942 50.7126C130.452 51.7802 129.154 52.56 128.015 52.3439L127.955 52.3316L127.953 52.3337C128.244 53.3777 128.496 54.4324 128.713 55.4891C130.398 63.6764 129.545 72.1988 128.008 80.3398L127.959 80.5998C126.579 87.8448 124.974 95.3478 121.853 102.075C119.031 108.158 114.246 113.507 107.407 114.834C99.3616 116.396 90.4566 113.921 83.5376 109.794C81.0296 108.297 83.3286 104.354 85.8256 105.875C89.4296 108.069 93.3446 109.601 97.4856 110.409C101.356 111.161 105.685 111.417 109.397 109.857C114.567 107.684 117.639 102.377 119.582 97.3808C120.727 94.4328 121.585 91.3888 122.384 88.3328C123.412 84.4038 124.372 80.4498 125.092 76.4508C126.434 68.9928 126.869 61.2463 125.449 53.7666C124.997 51.3805 124.357 48.9795 123.522 46.6716C123.391 46.5089 123.267 46.3271 123.155 46.1284C122.282 44.5983 121.68 42.8588 121.031 41.204C120.463 40.217 119.842 39.268 119.183 38.3402C118.197 37.5825 117.259 36.7724 116.399 35.8885C118.896 34.2708 121.1 32.2457 122.685 29.6659C122.947 29.2405 122.781 28.8339 122.471 28.6045C121.205 30.189 119.566 31.5309 117.842 32.7197C116.959 33.4764 116.008 34.1561 115.011 34.7703C114.299 34.9112 113.579 35.008 112.881 35.0875C110.893 35.3136 108.894 35.2291 106.917 34.9649C102.641 34.3943 84.5566 29.4119 76.9336 31.3487C75.3456 31.7522 74.5966 33.1769 73.7556 34.5147C73.0266 35.6784 72.0986 36.6417 70.9856 37.4348L70.8616 37.5223C68.6856 39.0292 64.3106 43.7964 62.4706 48.0513C60.0966 53.5447 57.8156 70.0068 58.8656 70.1488C61.6116 70.5208 63.1336 71.9658 65.3706 73.5178C65.5186 73.6188 65.4316 73.8938 65.2416 73.8238C63.7646 73.2908 62.1676 72.9758 60.6186 72.7188C59.2186 72.4838 57.7437 72.4418 56.3916 72.9428C54.317 73.7118 53.305 75.4508 52.8888 77.4128C52.7261 78.1798 52.6543 78.9808 52.6458 79.7728L52.6447 80.0028C52.6458 82.5018 53.1115 85.2718 54.9254 87.1158C55.6966 87.8998 56.7423 88.4278 57.8367 88.5738C59.0346 88.7348 59.7736 88.1938 60.8746 87.9128C62.1426 87.5888 63.1306 88.4238 63.0126 89.5128C63.2806 89.7468 63.5406 89.9938 63.7986 90.2458V90.2468L63.8006 90.2478C63.9696 90.3238 64.1306 90.4258 64.2766 90.5478C64.5146 90.7508 64.7156 90.9728 64.8766 91.2118C65.2336 91.2818 65.5756 91.4798 65.8566 91.8438C66.4356 92.5898 66.9696 93.3438 67.4666 94.1138C68.3556 95.0578 69.2406 96.0048 70.1136 96.9668C71.1636 98.1228 72.1866 99.3048 73.2156 100.48L73.7306 101.067C74.2856 101.699 74.8396 102.331 75.3926 102.965L75.5586 103.151C76.1146 103.775 76.5416 104.235 76.6016 105.133C76.6436 105.799 75.9276 106.251 75.3336 106.099C74.4186 105.863 73.9936 105.144 73.4456 104.431L72.6166 103.368L71.8376 102.367C71.4506 101.868 71.0596 101.371 70.6716 100.875C70.5546 101.79 69.5876 102.527 68.7046 102.568L68.4986 102.576C66.4246 102.645 63.9046 102.352 62.3266 100.889C61.6166 101.606 60.7336 102.17 59.6456 102.508C57.1733 103.278 54.6466 101.915 53.6473 99.8408C51.7099 100.672 49.5212 100.839 47.4275 100.228C46.2199 99.8738 45.8023 98.3678 46.6438 97.4468L46.6818 97.4058L46.6915 97.3948C46.5178 97.1698 46.4223 96.8928 46.4069 96.5918C46.3881 96.2258 46.6545 95.8388 46.5996 95.4968C46.39 94.1958 44.268 95.1598 43.5937 95.4418C43.4648 95.4958 43.3439 95.5208 43.2311 95.5248C42.1885 95.8288 41.0546 94.4588 41.6008 93.3268C42.824 90.7998 44.0177 88.2528 45.2557 85.7288C45.0994 85.7818 44.9388 85.8308 44.7804 85.8708C42.5557 86.4418 39.8578 85.3468 40.3712 82.6648C40.4895 82.0348 41.0599 81.6038 41.6261 81.4088C42.7289 81.0288 43.5571 81.3038 44.4064 80.9488C45.3635 80.5508 46.3627 79.8218 47.2036 79.1348C48.1015 78.4038 48.8768 77.5818 49.5635 76.6898C49.8381 75.3938 50.3135 74.1558 51.074 73.0908C51.1205 73.0268 51.167 72.9638 51.2156 72.9018C46.3381 71.7388 46.9767 66.9402 44.8253 62.6875L44.6435 62.335C43.1823 59.4903 41.9075 56.2831 42.6444 53.0438C42.7754 52.4711 42.9656 51.9237 43.2106 51.4122C42.8198 51.4608 42.4268 51.5052 42.036 51.5496C41.1381 51.651 40.2254 50.4928 40.5825 49.6411C40.7705 49.1951 40.9775 48.764 41.2015 48.3455C41.8226 47.1915 42.5853 46.1432 43.4832 45.1964C41.9747 45.1562 40.4642 45.1562 38.9726 44.9829C37.5635 44.8202 36.0825 44.0487 36.1259 42.4235C36.1695 40.8738 37.5286 39.7008 38.7888 38.9448C40.0292 37.2944 41.6025 35.9228 43.382 34.9034C43.0299 34.8242 42.6733 34.7656 42.3107 34.7295L42.1289 34.7134C41.1127 34.6331 40.2001 34.3541 39.2789 33.9293C38.455 33.5489 38.4677 32.3949 39.0064 31.8137C40.7481 29.9301 43.3577 30.5435 45.3882 31.6228C45.2468 31.4434 45.0919 31.2705 44.9232 31.1051L44.8203 31.0067C43.8227 30.0774 45.3199 28.5861 46.3142 29.5123C46.6283 29.805 46.9097 30.1231 47.1607 30.4602L47.1846 30.4103C48.4982 27.7448 50.4195 25.359 52.6925 23.4472L53.2268 23.0029C57.3257 19.5776 58.5905 17.9541 64.0416 18.4585C63.8096 17.4679 63.8316 16.3535 63.8846 15.4372L63.8916 15.3136C64.1006 11.8686 65.3706 7.7451 68.7296 6.198C69.6026 5.7986 70.5906 6.4516 70.3586 7.4513C70.1956 8.1594 69.9976 8.84839 69.7496 9.51829C70.4836 8.74689 71.2686 8.0262 72.1016 7.3626C75.4946 4.6573 80.0286 2.3303 84.4886 3.0912C86.9386 3.5118 88.8616 5.05039 90.9126 6.33539C92.9746 7.62889 95.2776 8.3961 97.6926 8.6729C101.067 9.0618 104.453 8.67079 107.789 8.05369C110.081 7.05399 112.306 5.88309 114.478 4.62139C115.813 3.84569 117.112 2.9982 118.34 2.0619ZM58.4375 76.8858C59.1516 76.7028 59.9526 76.7048 60.6686 76.8838C62.5166 77.3488 64.2366 78.8958 64.3446 80.8468C64.3926 81.7278 63.6836 82.5718 62.8596 82.7978C61.9256 83.0558 61.1226 82.5988 60.5776 81.8678C59.9926 81.0858 59.8466 80.2378 59.1306 79.5278L58.9653 79.3668C58.3565 78.7848 57.4359 78.0318 56.591 78.1668C56.4663 78.1858 56.3734 78.0168 56.5001 77.9488C57.1889 77.5728 57.641 77.0888 58.4375 76.8858ZM68.0396 67.6989C68.3656 67.4326 68.7966 67.745 68.6426 68.1279L68.6306 68.1554C68.2446 68.9708 68.6986 69.9288 69.1676 70.6118C69.5706 71.2008 68.8086 71.7608 68.2716 71.5078C66.7636 70.7908 66.8416 68.6708 68.0396 67.6989ZM73.5536 43.1885C73.5256 42.9898 73.7906 42.9074 73.8576 43.1039C74.9836 46.3735 75.3066 49.269 75.1236 52.7267L75.1056 53.0335C74.9066 56.364 74.3236 59.889 72.3096 62.6242C71.8426 63.2562 70.8876 62.8842 71.0416 62.0895C71.6606 58.9087 72.8496 55.8885 73.3126 52.6696C73.7966 49.3049 74.0136 46.5553 73.5536 43.1885ZM63.0356 55.0728C63.2006 54.2 64.5426 53.3017 65.2206 54.1788C65.4486 54.4768 65.1806 54.8425 64.9056 54.9524C64.6476 55.0538 64.4176 54.9143 64.1636 54.965C63.9586 55.0065 63.8086 55.1344 63.7096 55.3094L63.6886 55.3476C63.4896 55.728 62.9656 55.4448 63.0356 55.0728ZM62.4866 48.1194C62.9686 47.2275 64.0776 46.659 65.0256 47.2148C65.3386 47.3987 65.2156 47.9334 64.8356 47.9165L64.6106 47.9074C63.9346 47.8827 63.2576 47.8964 62.6896 48.3244C62.5626 48.4195 62.4236 48.2399 62.4866 48.1194ZM64.1796 23.7617C61.4776 22.5464 58.7909 23.6435 56.5846 25.3546C56.4021 25.4962 56.3135 25.6615 56.2941 25.8276C57.7671 25.2538 59.3356 24.8776 60.8346 24.5671C62.0606 24.3131 63.2976 24.1417 64.5366 24.0741C64.4676 23.9496 64.3536 23.8397 64.1796 23.7617Z" fill="black"/>
<path fill-rule="evenodd" clip-rule="evenodd" d="M102.166 96.7828C100.746 96.2038 99.4776 95.2368 98.5516 94.0018C98.2296 93.5718 98.1456 93.1188 98.2136 92.7038C98.2896 92.2378 98.5656 91.8148 98.9416 91.5318C99.3186 91.2478 99.7906 91.1068 100.247 91.1788C100.643 91.2408 101.038 91.4578 101.35 91.9078L101.415 91.9978C101.966 92.7438 102.684 93.3548 103.502 93.7498C104.29 94.1298 105.171 94.3068 106.084 94.2038C107.821 94.0078 109.019 93.0678 110.292 91.7908C110.449 91.6298 110.607 91.4638 110.766 91.2948C110.866 91.1418 111.005 91.0428 111.159 90.9918C111.331 90.9338 111.525 90.9378 111.702 90.9998C111.874 91.0588 112.027 91.1728 112.129 91.3238C112.227 91.4668 112.282 91.6438 112.264 91.8478C112.148 93.1698 111.456 94.3508 110.474 95.2778C109.384 96.3078 107.938 97.0198 106.577 97.2698C105.077 97.5448 103.549 97.3478 102.166 96.7828ZM107.284 76.3748C108.88 77.3448 111.31 79.6068 109.594 82.0118C107.574 84.1328 104.665 81.7018 103.232 80.6018C101.903 79.7498 100.41 81.9418 101.643 82.9368C112 90.6078 116.203 76.6288 108.091 75.2348C107.198 75.0808 106.866 76.0748 107.284 76.3748ZM88.7236 67.4517C88.8996 65.2629 92.2326 64.7658 92.5636 66.9318C92.8606 68.8718 92.5106 70.6538 91.6376 72.4008C90.8026 74.0698 88.7046 73.2918 88.5456 71.7718C88.3336 69.7348 88.6136 68.8128 88.7236 67.4517ZM114.09 66.4826C114.554 65.874 115.225 65.4584 116.029 65.6933C118.54 66.4273 117.8 69.9938 116.918 71.7288C116.439 72.6718 114.89 72.9108 114.19 72.0808C113.049 70.7278 112.503 68.0244 113.953 66.6913C113.992 66.6224 114.036 66.5528 114.09 66.4826ZM91.6026 57.8742L91.9986 57.8047C93.2256 57.5924 94.7516 57.3884 95.6196 58.3753C96.0796 58.8986 96.2386 59.8712 95.6196 60.3721C94.5306 61.2534 93.3276 60.9119 92.0236 60.9865C90.9486 61.0482 89.9156 61.2262 88.8796 61.5223C86.6086 62.1718 84.7576 63.3574 82.8176 64.6594C82.5626 64.8301 82.3026 64.5044 82.4246 64.2662C83.5446 62.0718 85.7146 60.2692 87.8886 59.1704C89.0486 58.5839 90.3186 58.0973 91.6026 57.8742ZM111.801 56.8911L112.104 56.9533C115.408 57.6441 119.7 59.0241 121.265 62.2703C121.324 62.7293 121.261 62.8277 121.21 62.892L121.193 62.9134C121.151 62.9683 121.117 63.0439 120.918 63.1064C120.863 63.0932 120.807 63.0793 120.751 63.0645C120.034 62.8765 119.467 62.6175 118.917 62.3488L118.322 62.0553C117.631 61.7164 116.934 61.3898 116.195 61.1487C114.618 60.6342 112.997 60.2719 111.35 60.0784C110.993 60.0365 110.65 59.916 110.378 59.7094C110.121 59.5134 109.925 59.242 109.835 58.8812C109.719 58.4144 109.752 58.0609 110.002 57.6397C110.191 57.3234 110.46 57.1041 110.77 56.9782C111.085 56.8499 111.444 56.8196 111.801 56.8911Z" fill="black"/>
</svg>
