<svg width="268" height="224" viewBox="0 0 268 224" fill="none" xmlns="http://www.w3.org/2000/svg">
<path fill-rule="evenodd" clip-rule="evenodd" d="M11.1105 199.098C11.574 198.867 12.0571 198.602 12.5865 198.583C13.4954 198.551 13.4966 197.137 12.5865 197.169C11.7925 197.197 11.0953 197.528 10.3968 197.876C9.58161 198.283 10.2987 199.503 11.1105 199.098ZM12.5865 159.279C11.9662 159.279 11.3409 159.358 10.8645 159.792C10.5813 160.05 10.6037 160.531 10.8645 160.792C11.1436 161.071 11.5824 161.049 11.8647 160.792C11.7725 160.876 11.8638 160.793 11.8971 160.774C11.9052 160.77 11.9096 160.767 11.9117 160.765C11.9187 160.763 11.9259 160.762 11.9372 160.759C12.0112 160.74 12.0843 160.722 12.1589 160.708C12.1601 160.712 12.3168 160.698 12.3536 160.697C12.4314 160.694 12.5088 160.693 12.5865 160.693C12.9701 160.693 13.2935 160.37 13.2935 159.986C13.2935 159.604 12.9686 159.279 12.5865 159.279ZM19.2358 175.147C19.4384 176.036 20.8015 175.657 20.5994 174.771C20.3056 173.483 20.3592 172.161 20.5994 170.868C20.7648 169.978 19.4017 169.599 19.2358 170.493C18.9475 172.044 18.883 173.6 19.2358 175.147ZM21.0219 124.306C22.0751 124.056 23.1168 124.026 24.1941 124.026C25.1055 124.025 25.1041 122.611 24.1941 122.611C22.9926 122.611 21.8196 122.663 20.6459 122.942C19.7596 123.153 20.1372 124.516 21.0219 124.306ZM24.5509 158.763C25.1617 158.458 25.7728 158.152 26.3836 157.847C27.1988 157.439 26.4818 156.219 25.6699 156.625L23.8372 157.542C23.0222 157.95 23.7392 159.169 24.5509 158.763ZM24.8053 186.621C25.5802 187.739 26.6696 188.433 27.977 188.78C28.8591 189.013 29.232 187.648 28.353 187.415C27.418 187.168 26.5874 186.716 26.0265 185.908C25.5108 185.163 24.2854 185.871 24.8053 186.621ZM29.6918 136.815C29.9016 136.423 30.2172 136.257 30.6088 136.248C31.5188 136.228 31.5189 134.813 30.6088 134.834C29.7162 134.854 28.8975 135.302 28.471 136.101C28.0415 136.904 29.2628 137.618 29.6918 136.815ZM38.6617 146.43C38.9153 146.707 39.4068 146.7 39.6618 146.43C39.8179 146.266 39.949 146.081 40.0522 145.88C40.0914 145.803 40.1284 145.725 40.1715 145.651C40.1908 145.618 40.2122 145.585 40.2341 145.553C40.2416 145.546 40.2568 145.53 40.2728 145.514C40.5446 145.226 40.5376 144.802 40.2728 144.513C40.0192 144.237 39.5275 144.244 39.2726 144.513C39.1168 144.678 38.9854 144.862 38.8823 145.064C38.8431 145.141 38.8061 145.219 38.7628 145.293C38.7435 145.326 38.7222 145.359 38.7003 145.391C38.6929 145.397 38.6777 145.413 38.6617 145.43C38.3899 145.717 38.3968 146.142 38.6617 146.43ZM39.4159 167.32C40.3367 167.74 41.3469 167.74 42.268 167.32C42.6167 167.16 42.6994 166.656 42.5213 166.351C42.3153 165.998 41.901 165.939 41.5541 166.098C41.1363 166.289 40.5467 166.289 40.1294 166.098C39.7809 165.939 39.3707 165.995 39.1622 166.351C38.9831 166.657 39.0684 167.16 39.4159 167.32ZM41.928 182.106C42.0862 182.479 42.4279 182.679 42.8275 182.694C43.2231 182.708 43.5179 182.358 43.5345 181.987C43.545 181.746 43.4155 181.541 43.2295 181.415C43.2291 181.401 43.2287 181.389 43.2287 181.375C43.2286 180.979 42.9049 180.685 42.5217 180.669C42.14 180.651 41.8145 181.005 41.8146 181.375C41.8148 181.626 41.8302 181.873 41.928 182.106ZM45.5765 205.611C46.7052 205.629 47.8079 205.899 48.9365 205.916C49.8484 205.932 49.8456 204.518 48.9365 204.502C47.8081 204.484 46.7053 204.215 45.5765 204.197C44.6646 204.181 44.6674 205.597 45.5765 205.611ZM50.2695 114.957C50.9301 115.587 51.7462 115.897 52.5509 116.29C53.366 116.689 54.0822 115.468 53.2646 115.069C52.5829 114.736 51.8284 114.489 51.2694 113.957C50.61 113.329 49.6089 114.328 50.2695 114.957ZM52.0427 131.263C52.5063 131.031 52.9895 130.767 53.5185 130.748C54.4276 130.716 54.4288 129.302 53.5185 129.334C52.7247 129.361 52.0276 129.692 51.329 130.041C50.5134 130.448 51.2307 131.668 52.0427 131.263ZM60.544 196.706C60.7532 196.313 61.0688 196.147 61.4605 196.138C62.3708 196.119 62.3711 194.703 61.4605 194.724C60.5678 194.745 59.7492 195.194 59.3227 195.991C58.8935 196.795 60.1145 197.508 60.544 196.706ZM63.4879 165.986C63.7693 165.729 63.7497 165.248 63.4879 164.986C63.1825 164.681 62.877 164.375 62.5714 164.07C62.2921 163.79 61.8539 163.81 61.5716 164.07C61.2901 164.328 61.3098 164.807 61.5716 165.07C61.8772 165.375 62.1824 165.681 62.488 165.986C62.7675 166.267 63.2056 166.246 63.4879 165.986ZM66.959 213.861C67.9792 213.838 68.9356 213.546 69.8963 213.225C70.7568 212.939 70.3857 211.573 69.5202 211.862C68.6852 212.139 67.8466 212.426 66.959 212.447C66.0489 212.468 66.0485 213.882 66.959 213.861ZM71.541 183.611C72.4627 183.585 73.2272 183.115 73.8738 182.486C74.5276 181.852 73.5265 180.851 72.8738 181.487C72.5037 181.846 72.0768 182.181 71.541 182.197C70.6312 182.221 70.6305 183.635 71.541 183.611ZM68.6958 144.708C68.6845 145.084 68.5254 145.488 68.2918 145.736C67.6668 146.398 68.6656 147.399 69.2917 146.736C69.8083 146.189 70.0881 145.457 70.1099 144.708C70.136 143.796 68.7217 143.8 68.6958 144.708ZM79.4826 113.897C79.7786 113.318 80.1664 112.638 80.7562 112.318C81.5574 111.883 80.8428 110.662 80.0425 111.096C79.2406 111.532 78.6667 112.39 78.2614 113.183C77.8477 113.993 79.0685 114.708 79.4826 113.897ZM81.3157 128.609C81.6437 128.6 81.9695 128.544 82.2858 128.458C82.4211 128.421 82.5548 128.379 82.6902 128.342C82.748 128.326 82.9944 128.296 82.843 128.304C83.2259 128.283 83.5501 127.996 83.5501 127.596C83.5501 127.229 83.2248 126.869 82.843 126.889C82.3182 126.917 81.8409 127.18 81.3157 127.195C80.4063 127.22 80.4056 128.635 81.3157 128.609ZM85.8976 151.221H87.425C88.3365 151.221 88.3349 149.806 87.425 149.806H85.8976C84.9863 149.806 84.9878 151.221 85.8976 151.221ZM87.6792 213.765C88.1423 213.996 88.6882 214.217 89.0634 214.571C89.7249 215.196 90.7261 214.197 90.0634 213.57C89.5856 213.118 88.9747 212.834 88.3929 212.543C88.05 212.372 87.6288 212.449 87.4253 212.797C87.2417 213.111 87.3377 213.595 87.6792 213.765ZM91.0918 195.891C91.1511 195.874 91.2136 195.863 91.2736 195.854C91.514 195.823 91.7656 195.833 92.0071 195.833C92.9184 195.833 92.917 194.417 92.0071 194.419C91.2899 194.419 90.5435 194.43 89.9797 194.931C89.6933 195.187 89.7212 195.674 89.9797 195.931C90.2607 196.214 90.6946 196.185 90.9795 195.931C90.9496 195.959 91.0526 195.902 91.0918 195.891ZM92.0067 171.851C91.8012 171.427 91.798 171.152 91.7977 170.681C91.797 169.769 90.3829 169.771 90.3836 170.681C90.3839 171.364 90.4855 171.946 90.7855 172.566C90.9529 172.911 91.4428 173.001 91.7528 172.82C92.1003 172.617 92.173 172.195 92.0067 171.851ZM96.0956 138.668C96.9158 138.947 97.6479 139.342 98.3702 139.819C99.1327 140.322 99.8404 139.096 99.0841 138.597C98.2598 138.053 97.4072 137.622 96.4716 137.303C95.6065 137.009 95.2385 138.376 96.0956 138.668ZM100.866 114.859C101.475 114.876 102.104 115.11 102.647 115.374C103.463 115.77 104.179 114.55 103.36 114.152C102.585 113.775 101.736 113.469 100.866 113.444C99.9534 113.419 99.9573 114.833 100.866 114.859ZM103.004 178.415C103.243 178.428 103.448 178.298 103.575 178.11C103.588 178.11 103.602 178.11 103.615 178.11C104.011 178.11 104.304 177.786 104.322 177.402C104.339 177.022 103.984 176.696 103.615 176.696C103.365 176.696 103.117 176.712 102.885 176.808C102.511 176.968 102.312 177.31 102.297 177.709C102.282 178.105 102.633 178.4 103.004 178.415ZM106.481 129.501C107.35 129.785 107.719 128.418 106.857 128.137C105.846 127.806 104.813 127.55 103.803 127.22C102.934 126.936 102.565 128.302 103.427 128.584C104.437 128.914 105.471 129.17 106.481 129.501ZM109.653 156.202C109.922 157.07 111.287 156.697 111.017 155.826C110.756 154.984 110.737 154.138 110.736 153.264C110.736 152.352 109.322 152.353 109.322 153.264C109.323 154.259 109.356 155.244 109.653 156.202ZM119.108 188.183C119.159 188.535 119.439 188.789 119.804 188.805C120.176 188.822 120.525 188.468 120.511 188.099C120.485 187.385 119.905 186.805 119.193 186.779C118.797 186.765 118.503 187.116 118.486 187.487C118.47 187.848 118.771 188.13 119.108 188.183ZM123.893 147.529C124.64 147.778 125.438 148.016 126.024 148.569C126.686 149.194 127.688 148.195 127.024 147.569C126.252 146.84 125.258 146.495 124.269 146.165C123.402 145.875 123.034 147.242 123.893 147.529ZM127.136 175.011C127.341 175.361 127.757 175.424 128.103 175.265C128.567 175.047 129.079 175.056 129.579 175.054C130.49 175.054 130.489 173.64 129.579 173.64C128.808 173.64 128.096 173.714 127.389 174.042C127.042 174.205 126.957 174.704 127.136 175.011ZM128.968 208.361C129.364 208.376 129.659 208.026 129.675 207.654C129.692 207.293 129.39 207.011 129.053 206.959C129.002 206.606 128.723 206.352 128.357 206.335C127.985 206.319 127.637 206.673 127.65 207.043C127.676 207.754 128.256 208.336 128.968 208.361ZM0.131062 213.71C0.371304 212.845 0.921178 212.147 1.33648 211.369C1.47578 211.106 1.52432 210.943 1.59985 210.752C1.70236 210.957 1.90142 211.112 2.20054 211.112C2.77477 211.112 3.44625 211.075 3.98211 211.32C4.33047 211.48 4.74104 211.424 4.94939 211.066C5.12847 210.759 5.04296 210.258 4.69583 210.099C3.90606 209.738 3.05724 209.698 2.20054 209.696C1.98903 209.696 1.82887 209.775 1.71567 209.892C1.38834 205.408 1.3964 200.92 1.70621 196.433C2.03652 191.636 2.79685 186.937 3.5924 182.202C3.97755 179.907 4.47784 177.588 4.38059 175.251C4.28333 172.929 3.2882 170.765 3.9935 168.436C4.27632 167.502 4.76066 166.647 5.07538 165.723C5.41287 164.73 5.38291 163.748 5.22905 162.719C4.91276 160.624 4.38777 158.553 5.22748 156.507C5.59862 155.6 6.19984 154.79 6.48949 153.853C6.85012 152.688 6.80052 151.398 6.8608 150.191C6.98277 147.754 7.01448 145.301 7.21617 142.87C7.30624 141.781 7.50232 140.748 7.94969 139.749C8.37935 138.787 9.01737 137.912 9.30195 136.891C9.58477 135.887 9.60947 134.828 9.76157 133.8C9.92068 132.714 10.1699 131.645 10.5058 130.601C11.8034 126.562 14.1809 122.934 16.9898 119.788C19.9756 116.444 23.5445 113.926 27.3329 111.58C29.3249 110.346 31.3167 109.112 33.3074 107.878C33.3499 108.109 33.4975 108.322 33.7808 108.417C34.5284 108.666 35.3265 108.904 35.9125 109.457C36.5744 110.082 37.5758 109.083 36.9125 108.457C36.2207 107.803 35.3511 107.459 34.4662 107.157C35.3731 106.585 36.29 105.993 37.3135 105.663C38.21 105.373 39.5319 105.626 40.2588 104.968C40.8295 104.45 41.01 103.49 41.229 102.786C41.5031 101.912 41.7398 100.991 42.0882 100.142C42.3251 99.5621 42.6698 99.0051 43.1045 98.556C43.2955 97.8203 43.6456 97.1483 44.2644 96.7399C45.8835 95.6683 47.8722 96.7329 48.5845 98.2607C49.1733 98.2589 49.7936 98.3879 50.3664 98.4233C51.5438 98.4976 52.7228 98.5312 53.9019 98.5277C56.2088 98.5206 58.5175 98.3702 60.8049 98.0644C64.8953 97.5161 68.864 96.4109 72.8855 95.5499C72.9085 95.4968 72.9351 95.4437 72.9668 95.3908C73.8332 93.9372 75.9915 94.1829 77.3511 94.7329C77.9343 94.9681 78.5281 95.2651 78.8623 95.8169C79.2159 96.0556 79.5217 96.3456 79.725 96.6515C80.1457 97.2827 80.4709 98.5559 81.3248 98.6621C81.887 98.731 82.4579 98.6232 83.0288 98.7045C83.743 98.8035 84.3829 99.0547 85.0423 99.3412C90.0627 101.521 95.2527 103.946 100.701 104.791C101.979 104.989 103.28 105.194 104.39 105.91C105.292 106.492 105.988 107.291 106.732 108.05C107.457 108.789 108.055 109.116 109.089 109.249C110.344 109.41 111.431 109.756 112.348 110.669C113.11 111.428 113.607 112.397 114.205 113.277C114.813 114.176 115.705 114.681 116.632 115.203C118.822 116.437 120.862 117.928 122.638 119.716C126.381 123.486 128.647 128.331 130.931 133.052C133.4 138.159 135.709 143.328 137.31 148.781C138.88 154.136 139.814 159.644 140.245 165.203C140.699 171.038 140.764 176.894 141.142 182.731C141.33 185.647 141.473 188.566 141.619 191.484C141.761 194.367 141.967 197.254 141.934 200.14C141.869 205.72 140.755 211.317 138.805 216.54C138.317 217.839 137.779 219.121 137.205 220.383C136.7 221.492 134.977 221.368 134.436 220.383C134.313 220.157 134.215 219.924 134.134 219.687C132.72 219.7 131.292 219.589 129.886 219.721C127.404 219.952 124.917 220.082 122.428 220.236C117.503 220.541 112.569 220.744 107.643 221.026C107.165 221.052 106.687 221.081 106.209 221.109C109.72 210.239 109.265 198.486 109.82 187.182C109.865 186.269 108.45 186.274 108.406 187.182C107.848 198.535 108.323 210.318 104.688 221.205C103.278 221.301 101.869 221.417 100.466 221.589C99.331 221.724 98.1906 221.885 97.0451 221.829C95.746 221.767 94.4768 221.47 93.2092 221.212C90.9059 220.742 88.6873 220.954 86.3751 221.243C83.9021 221.552 81.4202 221.724 78.9312 221.832C68.9647 222.269 58.931 222.666 48.9681 222.001C46.5569 221.839 44.151 221.613 41.7558 221.305C39.288 220.989 36.8468 220.457 34.381 220.154C31.9504 219.857 29.7158 220.672 27.3134 220.823C24.8635 220.975 22.3479 220.465 19.9208 220.171C19.1289 220.075 18.3363 219.982 17.5436 219.889C18.5641 212.892 19.1445 205.841 19.7082 198.793C19.7809 197.883 18.3661 197.892 18.2941 198.793C17.7349 205.786 17.1675 212.783 16.1484 219.726C11.9457 219.237 7.73871 218.743 3.57978 217.981C2.3954 217.765 1.2182 217.413 0.509211 216.356C-0.0156053 215.573 -0.121796 214.613 0.131062 213.71Z" fill="black"/>
<path fill-rule="evenodd" clip-rule="evenodd" d="M63.2233 23.8573C60.4638 23.3002 57.6303 22.9536 54.8124 23.0579L54.5951 23.0665C52.4748 23.1511 49.7897 23.3386 47.9402 24.5721C47.8336 24.4652 47.6626 24.4103 47.5074 24.4845C45.3094 25.5339 42.8918 26.2928 40.5775 27.0467C38.2737 27.797 35.8838 28.2924 33.4693 28.492C32.5609 28.5672 31.7834 29.5485 32.3587 30.4285C32.4955 30.6382 32.6287 30.8501 32.7615 31.0624C32.5395 31.0393 32.3175 31.0153 32.0955 30.9929C31.3647 30.9193 30.6349 31.6994 30.6782 32.411C30.7054 32.8586 30.7535 33.3007 30.825 33.7377C30.5468 33.7319 30.2701 33.7736 30.0029 33.8866C28.6494 34.4582 28.7436 36.0709 28.8449 37.2977C28.9853 39.0002 29.6219 40.8035 30.8037 42.0778C29.9212 42.9946 29.2965 44.0896 28.924 45.39C28.6536 46.3396 28.5032 47.351 28.5775 48.3395L28.6012 48.6355C28.693 49.7082 28.8754 50.8958 29.647 51.6675C30.043 52.0654 30.5308 52.2104 30.9959 52.1645C30.7146 54.6364 30.5343 57.1228 30.3647 59.6002L30.285 60.7842C29.9065 66.5101 29.6221 72.2731 29.6964 78.0082C29.7656 83.368 30.8242 88.5704 34.1104 92.9223C37.1034 96.8849 41.4006 99.8062 46.2618 100.917C48.8817 101.516 51.5563 101.559 54.2078 101.177C55.4932 100.991 56.7869 100.706 58.0069 100.257C59.3572 99.7586 60.3278 99.0247 61.2364 97.9248C61.666 97.4031 61.4592 96.2927 60.6034 96.3969C59.3093 96.5539 58.1278 96.7432 56.887 97.1261L56.7093 97.1821C55.4735 97.5782 54.1937 97.8734 52.9017 97.9991C50.2552 98.2554 47.5683 97.9973 45.0333 97.1944C40.9055 95.886 37.3506 92.9699 35.0721 89.306C32.3674 84.9631 32.0616 80.033 32.1007 75.0393C32.1426 69.5596 32.3208 64.0766 32.6115 58.6026L32.6611 57.6904C32.815 54.8735 32.9634 52.0548 33.0939 49.236C33.1348 48.352 33.1966 47.4607 33.3081 46.5783C34.3279 45.9806 35.2417 45.1566 35.8375 44.1398C37.0343 44.635 38.2929 44.9921 39.451 45.2768C42.1334 45.9367 44.9182 46.0969 47.6484 45.6837C48.3849 45.9881 49.136 46.2557 49.8986 46.4857C50.1048 46.5772 50.3109 46.6671 50.5168 46.7551C52.3555 47.542 54.2205 48.2086 56.1611 48.6968L56.6379 48.8156C57.6594 49.0676 58.7688 49.3155 59.8557 49.3935C60.0343 49.4624 60.227 49.5207 60.4375 49.5721C61.4272 49.8125 62.4546 49.8886 63.469 49.8037C64.4573 49.7207 65.1715 48.7215 64.6271 47.7861C64.2293 47.1034 63.8278 46.4227 63.4231 45.7436C64.8319 46.3307 66.2867 46.8189 67.7539 47.2326C69.2353 47.65 70.7379 48.0018 72.2424 48.3253C73.0467 48.4969 73.8544 48.649 74.6569 48.8205C75.2315 48.9425 76.1136 49.0063 76.5822 49.3846C77.1 49.8002 77.2467 50.7693 77.4431 51.367C77.7012 52.1432 77.9434 52.923 78.1644 53.7117C78.6044 55.2855 78.965 56.8822 79.2443 58.495C79.5236 60.1094 79.7111 61.7398 79.8154 63.3755C79.9195 65.0094 79.8737 66.6539 80.0414 68.2808C80.1319 69.1438 81.0579 69.5877 81.742 68.9845C81.8223 68.9139 81.9033 68.8424 81.9833 68.77L82.1027 68.661C82.688 68.1304 83.2553 67.5681 83.7237 66.9352C83.8085 66.8185 83.8899 66.6964 83.9659 66.5726C83.9782 66.5726 83.9889 66.5691 84.0011 66.5602L84.131 66.4624C85.5607 65.3981 87.9493 64.0102 89.3434 65.7787C89.7876 66.342 90.015 67.0594 90.2038 67.7514L90.535 68.9899C90.7493 69.7986 90.9508 70.6117 91.0687 71.439C91.3358 73.2922 91.2014 75.4283 89.9267 76.9137C89.4175 77.5079 88.7157 77.9322 87.9328 78.0436C87.4961 78.1037 87.0647 78.0294 86.6315 77.9747C86.1915 77.9199 85.7673 78.0082 85.3271 77.9658C84.6271 77.8969 84.3211 78.7351 84.5827 79.262C84.7243 79.545 84.8906 79.7889 85.0795 79.9958C84.9277 80.1267 84.7825 80.2682 84.6428 80.4168C84.2293 80.5494 83.8581 80.834 83.5806 81.2107C83.3559 81.5149 83.2396 81.8456 83.2199 82.1939C83.1952 82.2805 83.174 82.369 83.1544 82.4591L82.7752 83.0748C82.6918 83.2099 82.6087 83.3433 82.5253 83.4742C81.5602 84.9948 80.4888 86.2823 79.1576 87.4952C77.8759 88.6624 76.4849 89.7075 75.2809 90.9594L75.1392 91.1081C74.0166 92.2913 72.8335 93.7234 73.2728 95.4439C73.386 95.886 74.0032 96.2042 74.406 95.9054C75.7017 94.9434 76.3542 93.4191 77.4534 92.252C78.5851 91.0496 79.8383 89.9691 80.9731 88.7702C82.0462 87.6385 82.893 86.3566 83.531 84.9454C83.7858 85.2265 84.1567 85.4264 84.6712 85.5042C85.5551 85.6367 86.379 85.1187 86.7642 84.353C87.0118 84.4627 87.2644 84.5617 87.5192 84.6395C88.859 85.0497 89.7021 83.559 89.1965 82.4573C88.9263 81.8668 88.5887 81.3539 88.1695 80.9225C89.4795 80.7422 90.8125 80.0649 91.6734 79.2196C93.8333 77.0958 94.1303 73.9039 93.6443 71.0659C93.3861 69.561 92.9409 68.0386 92.3626 66.6257C92.262 66.3799 92.1539 66.1323 92.0358 65.8882C92.1012 65.8864 92.1683 65.8582 92.2107 65.8034C92.6015 65.2694 93.0767 64.8326 93.3669 64.2349C93.6337 63.6868 93.9306 63.1315 94.141 62.5604C94.574 61.3914 94.7862 60.0723 94.9276 58.8362C95.2192 56.3059 95.1062 53.7913 94.7189 51.2767C94.0597 46.9939 92.4674 42.8953 90.1214 39.2988C90.2492 39.2317 90.3716 39.1508 90.4857 39.0549L90.542 39.0057L90.6336 38.923C91.303 38.317 91.2452 37.1812 90.6336 36.5673L90.4403 36.3737C90.1957 36.1307 89.9849 35.9379 89.5898 35.6733C89.5314 35.6342 89.4718 35.5974 89.4116 35.5631C89.6183 35.1809 89.6902 34.7337 89.5461 34.2406C89.0441 32.5225 86.5728 32.5833 85.0064 33.3326C83.2734 31.7854 81.352 30.4425 79.2692 29.355C74.3088 26.7661 68.7 24.9607 63.2233 23.8573ZM88.8641 69.1084C87.9379 68.806 86.7076 69.4408 85.875 69.8228C84.8196 70.3073 83.9216 71.0235 83.0519 71.7803C82.6187 72.1586 82.5411 72.7776 82.6489 73.3064C82.6596 73.3593 82.6701 73.4142 82.6827 73.469C82.7975 74.0331 83.4269 74.477 83.9836 74.461C85.1485 74.4293 85.7035 73.4231 86.3631 72.5708C86.4407 72.7087 86.5379 72.8359 86.6583 72.9314L86.7395 72.995C87.0132 73.2035 87.3149 73.3702 87.6764 73.3541C87.9328 73.3416 88.1783 73.2763 88.4047 73.1578C88.9705 72.8589 89.2195 72.1269 89.0658 71.531C88.9705 71.1562 88.7513 70.8625 88.4648 70.6592L88.5717 70.5861C88.8 70.4272 89.0083 70.2595 89.1706 70.0121L89.2072 69.9535H89.1932C89.37 69.6495 89.2549 69.2356 88.8641 69.1084Z" fill="black"/>
<path fill-rule="evenodd" clip-rule="evenodd" d="M45.2339 86.9036C46.5362 87.2809 47.934 87.3146 49.2614 86.925C50.4652 86.5716 51.7015 85.7937 52.5876 84.7644C53.3748 83.8501 53.8845 82.7391 53.8645 81.553C53.8623 81.4175 53.8139 81.3045 53.7394 81.2167C53.6592 81.1223 53.5472 81.0574 53.4271 81.0292C53.3038 81.0003 53.1734 81.0105 53.0623 81.0609C52.9617 81.1067 52.8757 81.1843 52.8217 81.2977C52.6856 81.4766 52.5499 81.653 52.4138 81.8244C51.3188 83.1768 50.2585 84.1876 48.612 84.5501C47.7187 84.7467 46.8266 84.6595 46.0079 84.3595C45.1317 84.0381 44.3395 83.4731 43.7188 82.7503C43.4383 82.4235 43.1071 82.2902 42.7833 82.2879C42.4162 82.2854 42.0534 82.4559 41.7803 82.7286C41.5116 82.9967 41.3317 83.3608 41.3154 83.7418C41.3012 84.0761 41.4102 84.4254 41.7002 84.7371C42.6557 85.7634 43.8941 86.5153 45.2339 86.9036ZM45.2742 69.9646C43.9393 70.7763 41.9054 72.6689 43.3414 74.6811C45.0317 76.4553 47.4654 74.4211 48.6647 73.5011C49.7767 72.7881 51.0261 74.6219 49.9944 75.4544C41.3283 81.8726 37.8115 70.1768 44.599 69.0103C45.3464 68.8817 45.6239 69.7135 45.2742 69.9646ZM57.7613 66.3932C58.1903 66.1186 58.6951 66.0245 59.2545 66.279C59.6915 66.4779 60.4581 67.1408 60.9917 68.012C61.3567 68.6081 61.6155 69.3075 61.5615 70.0361C61.5491 70.2052 61.6115 70.33 61.7101 70.4221C61.7879 70.495 61.9004 70.5485 62.0326 70.5653C62.1447 70.5795 62.2702 70.5667 62.3722 70.5348C62.5663 70.4742 62.669 70.3482 62.7077 70.2453C63.0813 69.253 62.9205 68.1455 62.5017 67.1464C61.9367 65.798 60.9106 64.6686 60.2384 64.3045C59.088 63.6812 57.7308 63.6524 56.5789 64.2875C55.5983 64.8279 54.985 65.7005 54.3752 66.59C54.2455 66.7791 54.1169 66.9667 53.9839 67.1511C53.7173 67.5206 53.6909 67.8871 53.7941 68.2012C53.9083 68.5494 54.1999 68.8431 54.5646 68.997C54.9014 69.1391 55.2925 69.1591 55.6386 69.0131C55.9309 68.8897 56.1991 68.6493 56.3689 68.2414C56.6549 67.5543 57.1312 66.7962 57.7613 66.3932ZM35.9712 67.9218C36.265 68.0749 36.4949 68.121 36.8209 68.0234C37.0012 67.9692 37.1792 67.8653 37.3187 67.7259C37.457 67.5876 37.5567 67.4157 37.5954 67.2249C37.6907 66.7542 37.9483 66.3135 38.3152 66.0261C38.6289 65.7806 39.0248 65.6504 39.4639 65.7238C39.9377 65.803 40.3891 66.1071 40.7 66.4654C40.804 66.5853 40.8854 66.7214 40.9674 66.8569C41.1205 67.1097 41.2695 67.3449 41.4806 67.5308C41.5607 67.6014 41.6814 67.6503 41.7983 67.6503C41.8458 67.6503 41.894 67.6426 41.9401 67.6282C42.4116 67.1548 42.5022 66.7955 42.4871 66.4393C42.4712 66.0657 42.3238 65.6874 42.0859 65.3345C41.5277 64.5067 40.468 63.8278 39.7528 63.674C38.7735 63.4635 37.8008 63.7162 37.0208 64.2635C36.2184 64.8265 35.6239 65.7007 35.4385 66.6859C35.394 66.9231 35.4129 67.1791 35.5031 67.4011C35.5915 67.6183 35.7453 67.804 35.9712 67.9218ZM55.6012 57.5661C56.189 58.139 56.8846 58.2278 57.5885 58.3067C57.9795 58.351 58.2917 58.3866 58.5989 58.456C59.4432 58.6466 60.2778 58.9338 61.0392 59.3474C61.8353 59.7797 62.7026 60.301 63.3266 60.9689C63.4751 61.1279 63.6149 61.2945 63.7549 61.4617C63.8827 61.6141 64.0057 61.7608 64.1353 61.9024C64.2843 62.0648 64.4257 62.2352 64.5664 62.405C64.6533 62.5483 64.6705 62.5835 64.688 62.6203C64.7145 62.6755 64.7451 62.7372 64.7802 62.8034C64.828 62.894 64.8843 62.9932 64.9432 63.0833C65.0409 63.2478 65.0935 63.293 65.1389 63.3134C65.2142 63.3468 65.2856 63.3635 65.3549 63.3544C65.42 63.3461 65.4811 63.3148 65.5416 63.2638C65.8433 63.0086 65.9323 62.5902 65.9232 62.1458C65.9094 61.4717 65.6607 60.7252 65.4315 60.2663C64.8986 59.2 64.1597 58.0917 63.2711 57.2958C62.2572 56.3875 61.1478 55.6998 59.8735 55.2259C59.0819 54.9314 58.1651 54.661 57.3024 54.6952C56.6814 54.7197 56.0886 54.9044 55.5991 55.3654C55.2984 55.6484 55.1542 56.0511 55.1542 56.4534C55.1542 56.8638 55.3041 57.2765 55.6012 57.5661ZM34.7758 62.8119C34.8133 62.8732 34.8649 62.9154 34.9224 62.9408C34.9829 62.9673 35.0502 62.975 35.1148 62.9641C35.1793 62.9533 35.2405 62.924 35.289 62.8795C35.3354 62.8367 35.3708 62.78 35.3868 62.7106C35.777 60.9961 36.5347 59.7204 38.1519 58.8979C38.9475 58.4933 39.8624 58.2362 40.7283 58.0312C40.98 57.9716 41.246 57.9329 41.5137 57.8938C42.3531 57.7713 43.1984 57.6308 43.7455 56.9523C44.0753 56.5435 44.2135 56.0206 44.1354 55.5426C44.0618 55.0924 43.7987 54.6796 43.3207 54.4323C42.1305 53.8167 40.6516 54.4207 39.4497 54.9352C39.3607 54.9734 39.2731 55.0109 39.1875 55.047C38.0121 55.5433 36.9402 56.1983 36.0591 57.1351C35.36 57.8784 34.7121 58.9771 34.4512 60.1073C34.2343 61.0476 34.2853 62.0075 34.7758 62.8119Z" fill="black"/>
<path fill-rule="evenodd" clip-rule="evenodd" d="M41.5303 89.7597C43.1765 88.2925 45.0219 85.3429 47.387 87.6768C47.9719 88.3362 48.2088 89.8144 49.1032 90.1044C50.2911 90.4899 51.4685 89.2326 51.8733 88.2671C53.5297 82.9026 46.6826 81.4312 42.7819 82.2979C40.8763 83.0808 39.4727 86.2318 39.3879 87.8764C39.333 88.9815 40.2681 90.6066 41.5303 89.7597ZM29.1102 81.4911C29.1264 81.4198 29.1488 81.3555 29.1758 81.2968C29.9039 81.0215 30.48 81.3024 30.8361 81.8269C30.8244 81.9572 30.7855 82.0892 30.7609 82.2185C31.0357 82.7975 31.2835 83.5138 31.6558 84.0141C31.7292 84.0197 31.8055 84.012 31.8787 83.9908C38.0503 84.6355 35.0373 78.1759 41.297 76.5715C46.1358 75.773 54.8814 76.6877 57.1642 81.7259C58.9643 89.7731 68.1182 84.1658 71.1238 79.9808C74.3307 76.172 76.4042 71.5177 78.4034 67.0015C78.8259 66.0457 80.1445 66.7291 80.0011 67.6461C81.8491 71.3545 81.7876 75.8089 82.2453 79.8715C83.0237 87.9764 83.7823 99.3428 76.254 104.292C66.4455 115.382 41.952 119.296 30.639 109.106C26.7227 100.683 27.2055 90.4081 29.1102 81.4911Z" fill="black"/>
<path fill-rule="evenodd" clip-rule="evenodd" d="M35.5537 56.8142C31.4044 56.8142 29.0367 57.7067 28.1689 57.7762L28.1428 57.7782C27.782 57.8013 27.4582 57.8314 27.1186 57.9629C25.8695 58.444 25.6661 59.7544 26.3949 60.5803C26.4461 62.2891 26.2214 64.2857 26.6069 66.0002C27.0825 73.2274 30.4802 74.447 32.4116 74.8921C33.3812 75.1157 34.5305 75.2047 35.5603 74.9687C37.3176 74.9031 39.0546 74.3529 40.5409 73.3947C42.6108 72.0593 44.1481 70.0068 44.6469 67.5708C44.8835 66.4097 44.9939 65.2011 44.8653 64.0208L44.8462 63.8581C45.5191 63.5362 46.2987 63.4754 47.1023 63.4469C47.4862 63.4332 47.8647 63.4209 48.2323 63.4374C48.5916 63.4775 48.9466 63.531 49.3028 63.6037C49.6917 63.7211 50.0589 63.9147 50.398 64.2216L50.4213 64.6695C50.4851 65.7881 50.6319 66.9101 50.8583 68.0076C51.1927 69.6269 51.7305 71.1735 52.8751 72.3221C53.2625 72.9009 53.7419 73.4177 54.3241 73.8652C56.4384 75.4935 59.3108 76.0914 61.9471 75.8662C67.2994 75.4094 70.3929 71.1593 71.1059 69.3427L71.1485 69.2327C71.6635 67.8822 72.0741 66.1298 73.7014 65.8397L74.0475 65.7775C74.7901 65.638 75.4755 65.4438 75.9109 64.7191C76.1018 64.4026 76.1999 64.0486 76.2241 63.6878C76.478 63.7075 76.7317 63.726 76.9846 63.7442C79.0013 64.1708 91.0975 64.5326 92.0628 64.5326C92.0628 64.5326 93.9189 65.314 94.7025 64.7085C95.2456 64.2875 95.4243 63.7264 95.1253 63.0908C94.6741 62.1344 92.5929 61.5591 91.6687 61.3769C91.6687 61.3769 76.7554 61.5008 75.6819 61.2971C75.0178 60.6122 73.8299 60.7059 72.8372 60.5976C72.0154 60.0115 70.8659 59.619 69.9578 59.3561C69.7728 59.286 69.5895 59.2182 69.4113 59.1543C67.7466 58.5613 66.0162 58.2471 64.2595 58.0783C62.4479 57.9063 60.631 57.9841 58.83 58.231C58.071 58.334 57.3191 58.4672 56.5726 58.6413C55.2358 58.8176 53.9068 59.108 52.5695 59.4523L52.3019 59.5221C50.8937 59.8913 49.4465 60.2107 47.9888 59.9603C46.8021 59.7579 45.6608 59.3009 44.5665 58.8069L44.424 58.7423C42.0181 57.6434 38.2606 56.8142 35.5537 56.8142ZM56.7174 60.8323C57.6051 60.6369 57.9841 62.0061 57.0936 62.2019C56.4629 62.3406 55.9285 62.6587 55.5673 63.1977L55.5293 63.2562C55.0448 64.0276 53.8196 63.3156 54.3074 62.5392C54.8564 61.6657 55.7094 61.0538 56.7174 60.8323ZM30.7164 59.9833C31.0294 59.7628 31.5029 59.9265 31.6846 60.2381C31.8845 60.5812 31.7536 60.9633 31.4605 61.1878L31.4307 61.2097C31.1617 61.3993 30.8999 61.7391 30.867 62.0871L30.8641 62.1307C30.8289 63.0417 29.4134 63.0463 29.4488 62.1307C29.4833 61.2349 30.0018 60.4865 30.7164 59.9833Z" fill="black"/>
<path fill-rule="evenodd" clip-rule="evenodd" d="M236.478 161.876C234.523 161.108 232.415 160.684 230.298 160.52C231.437 160.32 232.581 160.127 233.734 160.028C234.539 159.959 235.283 159.966 235.888 160.576C236.291 160.983 236.48 161.506 236.747 161.987C236.659 161.948 236.57 161.911 236.478 161.876ZM257.483 154.7C254.278 154.863 251.07 155.625 248.172 157.006C246.985 157.572 245.909 158.389 245.596 159.733C245.436 160.419 245.475 161.128 245.559 161.821C245.624 162.346 245.64 163.017 246.095 163.372C246.174 163.432 246.256 163.478 246.342 163.512C245.273 163.994 244.255 164.575 243.349 165.171C242.522 165.718 241.672 166.561 241.29 167.509C241.259 167.402 241.227 167.3 241.196 167.206C240.546 165.282 239.543 163.706 237.964 162.647C238.243 162.522 238.436 162.224 238.346 161.814C237.971 160.101 236.389 158.612 234.602 158.718C232.644 158.833 230.543 159.545 228.774 160.445C228.129 160.431 227.484 160.44 226.848 160.468C226.739 160.472 226.744 160.621 226.848 160.633C227.365 160.698 227.882 160.771 228.397 160.856C229.623 161.052 230.847 161.301 232.043 161.611C233.478 161.982 234.964 162.355 236.305 163.004C238.907 164.265 240.518 167.562 240.188 170.43C240.134 170.9 239.952 172.321 239.298 172.175C238.748 172.051 238.529 170.9 238.336 170.474C237.819 169.342 236.888 168.602 235.774 168.103C234.463 167.512 233.061 167.115 231.703 166.652C230.936 166.389 230.167 166.125 229.396 165.864C228.607 165.594 227.857 165.22 227.018 165.41C226.511 165.524 226.452 166.128 226.737 166.475C227.17 167.004 227.813 167.16 228.437 167.378C229.261 167.663 230.083 167.951 230.906 168.236C232.177 168.679 233.508 169.051 234.747 169.592L234.709 169.682C234.607 169.654 234.488 169.754 234.509 169.878C234.693 171.022 234.952 172.344 234.665 173.49C234.439 174.399 233.641 175.405 232.606 175.138C232.769 174.99 232.828 174.734 232.72 174.497C232.308 173.619 226.935 170.157 226.455 171.443C226.439 171.488 226.489 171.522 226.529 171.515C226.937 171.431 227.621 172.126 227.948 172.347C228.42 172.666 228.898 172.978 229.366 173.304C229.876 173.661 230.375 174.036 230.861 174.424C231.243 174.728 231.532 175.044 231.97 175.198C231.74 175.308 231.558 175.512 231.479 175.771C231.281 176.449 230.901 177.024 230.237 177.322C229.543 177.634 228.76 177.438 228.027 177.513C227.03 177.615 226.161 178.088 225.434 178.766C223.909 180.19 223.143 182.701 221.009 183.374C219.735 183.777 218.321 183.523 217.03 183.341C215.589 183.138 214.186 182.977 212.735 183.189C211.345 183.394 210.033 183.874 208.762 184.461C207.572 185.011 206.258 185.633 205.203 186.453C204.986 185.784 204.765 185.12 204.599 184.436C204.208 182.819 203.996 181.17 203.943 179.507C203.896 177.925 203.985 176.335 204.12 174.76C204.189 173.973 204.294 173.19 204.36 172.403C204.378 172.205 204.415 171.993 204.441 171.781C206.325 170.668 208.305 169.815 210.301 168.939C210.306 168.937 210.311 168.934 210.316 168.932C210.378 168.904 210.439 168.878 210.5 168.849C210.499 168.846 210.497 168.842 210.493 168.839C210.721 168.701 210.881 168.515 210.975 168.306C213.853 166.398 216.257 163.793 218.049 160.755C218.799 159.482 219.523 158.161 220.506 157.045C221.552 155.855 222.795 155.147 224.333 154.78C226.131 154.348 227.983 154.09 229.825 153.943C230.831 153.864 231.956 153.74 233.051 153.745C233.815 153.751 234.563 153.816 235.248 154.005C236.265 154.285 236.859 155.058 237.497 155.839C238.106 156.589 238.713 157.34 239.282 158.122C239.822 158.863 240.332 159.628 240.773 160.431C241.038 160.912 241.283 161.408 241.49 161.918C241.564 162.099 241.658 162.304 241.702 162.491C241.748 162.68 241.665 162.881 241.877 162.881C241.003 162.893 241.012 164.291 241.881 164.24C245.286 164.042 240.409 157.393 239.696 156.467C238.686 155.155 237.645 153.443 236.03 152.833C236.007 152.824 235.983 152.815 235.96 152.808C236.429 152.362 236.801 151.829 237.157 151.286C237.523 150.727 237.959 150.087 238.078 149.424C238.155 149.001 237.63 148.76 237.381 149.13C237.018 149.669 236.843 150.352 236.573 150.944C236.296 151.545 235.962 152.113 235.695 152.72C235.057 152.523 234.369 152.433 233.666 152.403C234.553 151.204 236.065 148.891 236.247 148.594C237.085 147.218 237.882 145.8 238.644 144.38C239.468 142.842 240.174 141.24 240.963 139.684C241.409 138.801 241.86 137.912 242.357 137.056C242.527 136.762 242.711 136.469 242.92 136.202C242.962 136.149 243.013 136.105 243.06 136.055C243.114 136.025 243.172 135.991 243.204 135.974C243.489 135.81 243.591 135.428 243.793 135.185C244.113 134.794 244.492 134.748 244.977 134.743C246.009 134.732 247.045 134.773 248.075 134.801C249.591 134.844 251.103 134.904 252.617 134.983C253.075 135.008 253.53 135.033 253.989 135.061C256.188 135.192 258.388 135.364 260.581 135.574C262.523 135.76 264.465 136.062 266.406 136.207C263.776 142.458 260.86 148.596 257.557 154.52C257.524 154.58 257.499 154.64 257.483 154.7ZM242.888 170.803C242.464 171 242.053 171.241 241.669 171.516C241.734 171.087 241.749 170.635 241.732 170.179C242.047 170.519 242.452 170.714 242.888 170.803ZM260.999 160.051C260.969 160.055 260.941 160.07 260.927 160.101C260.34 161.312 260.585 162.665 261.543 163.614C262.046 164.109 263.14 164.668 263.105 165.482C263.075 166.139 262.358 166.691 262.053 167.234C261.768 167.74 261.663 168.296 261.89 168.842C262.181 169.545 262.996 169.824 263.277 170.514C263.63 171.39 263.056 172.445 262.653 173.207C262.278 173.914 261.792 174.618 261.472 175.365C259.316 176.481 257.387 178.193 255.729 179.931C253.914 181.832 252.356 184.068 249.474 184.012C249.186 184.007 248.967 184.159 248.836 184.37C248.033 184.406 247.229 184.422 246.426 184.426C245.016 184.433 243.605 184.419 242.196 184.375C242.096 184.033 242.17 183.571 242.165 183.281C242.147 182.353 242.138 181.426 242.098 180.499C242.088 180.239 242.077 179.98 242.067 179.723C242.575 180.639 243.565 181.056 244.692 180.993C246.505 180.888 248.329 180.59 250.125 180.324C251.072 180.183 252.016 180.024 252.957 179.854C253.732 179.717 254.825 179.752 255.365 179.13C255.493 178.987 255.5 178.72 255.3 178.624C254.764 178.361 254.427 178.506 253.839 178.62C253.12 178.761 252.402 178.892 251.68 179.016C250.295 179.256 248.908 179.479 247.516 179.675C246.724 179.787 245.93 179.896 245.137 179.984C244.444 180.057 243.663 180.159 243.104 179.637C241.979 178.584 242.61 176.817 243.321 175.752C243.335 175.731 243.335 175.712 243.33 175.694C244.003 175.536 244.672 175.352 245.34 175.223C246.626 174.976 247.919 174.767 249.216 174.581C251.878 174.201 254.557 173.95 257.235 173.698C257.897 173.633 257.904 172.591 257.235 172.652C253.388 173.004 249.524 173.339 245.731 174.078C244.781 174.262 243.836 174.471 242.897 174.707C242.454 174.816 241.979 174.988 241.513 174.993C241.485 174.993 241.457 174.993 241.429 174.991C240.518 174.963 240.386 174.183 240.886 173.535C240.949 173.455 241.012 173.376 241.077 173.299C241.961 172.245 243.062 171.541 244.197 170.814C245.468 170.64 246.735 170.255 247.981 169.971C251.052 169.272 254.124 168.571 257.2 167.872C257.801 167.735 257.545 166.808 256.942 166.945C254.61 167.472 252.276 168.001 249.941 168.531L246.526 169.305C245.845 169.459 244.993 169.768 244.19 169.88C243.794 169.934 243.411 169.941 243.064 169.861C241.946 169.594 241.888 168.196 242.371 167.365C242.911 166.431 243.933 165.848 244.84 165.319C246.412 164.401 248.084 163.741 249.717 162.981C250.008 162.918 250.297 162.854 250.588 162.79C252.274 162.419 254.201 162.237 255.787 161.556C256.264 161.354 256.003 160.605 255.533 160.615C254.301 160.642 253.013 161.08 251.809 161.34C250.506 161.623 249.202 161.904 247.898 162.185C247.769 162.214 246.994 162.461 246.877 162.406C246.803 162.371 246.777 162.113 246.75 161.943C246.672 161.384 246.614 160.797 246.7 160.237C246.891 158.979 247.939 158.389 249 157.906C251.361 156.833 253.951 156.161 256.528 155.892C257.122 155.83 257.716 155.791 258.314 155.772C259.015 155.75 259.593 155.627 259.949 156.318C260.508 157.407 260.816 158.808 260.999 160.051ZM257.72 199.545C257.205 197.764 257.345 195.865 256.993 194.048C256.81 193.112 256.562 192.181 256.29 191.267C256.073 190.529 255.707 189.742 255.666 188.971C255.663 188.92 255.724 188.891 255.766 188.915C256.492 189.33 257.049 190.229 257.462 190.936C257.958 191.78 258.337 192.663 258.643 193.594C259.251 195.444 259.751 197.678 258.966 199.545C258.733 200.1 257.913 200.212 257.72 199.545ZM241.816 175.964C242.251 175.922 242.685 175.838 243.12 175.741C242.634 176.216 242.186 176.786 241.935 177.42C241.897 176.933 241.848 176.449 241.783 175.966C241.793 175.966 241.805 175.966 241.816 175.964ZM237.637 213.023C236.869 212.487 236.31 211.739 235.66 211.078C235.021 210.43 236.021 209.429 236.661 210.078C237.216 210.642 237.696 211.345 238.35 211.802C238.665 212.021 238.811 212.417 238.604 212.769C238.422 213.079 237.95 213.241 237.637 213.023ZM233.359 192.45C234.759 191.843 236.137 191.184 237.602 190.748C238.478 190.487 238.848 191.852 237.978 192.111C236.629 192.514 235.362 193.114 234.074 193.671C233.245 194.028 232.527 192.809 233.359 192.45ZM218.577 192.025C218.233 191.181 219.604 190.816 219.94 191.649C220.329 192.607 220.774 193.543 221.162 194.502C221.503 195.346 220.136 195.711 219.798 194.877C219.409 193.918 218.964 192.984 218.577 192.025ZM203.985 208.898C203.756 209.202 203.377 209.368 203.018 209.153C202.717 208.972 202.533 208.492 202.764 208.185C203.437 207.286 204.12 206.398 204.911 205.597C205.55 204.947 206.551 205.948 205.911 206.598C205.205 207.313 204.586 208.096 203.985 208.898ZM201.898 114.225C202.547 114.668 203.116 115.207 203.67 115.761C204.315 116.406 203.314 117.406 202.671 116.761C202.203 116.294 201.732 115.82 201.185 115.446C200.868 115.23 200.726 114.828 200.931 114.478C201.113 114.165 201.583 114.009 201.898 114.225ZM223.128 136.989C222.76 137.724 222.43 138.445 222.409 139.28C222.386 140.191 220.972 140.191 220.995 139.28C221.021 138.187 221.424 137.239 221.906 136.275C222.313 135.459 223.532 136.177 223.128 136.989ZM230.917 118.706C231.677 118.199 232.383 119.425 231.63 119.928C231.02 120.335 230.408 120.742 229.797 121.15C229.036 121.657 228.33 120.431 229.084 119.928C229.694 119.521 230.305 119.114 230.917 118.706ZM197.132 150.672C197.002 151.572 195.639 151.187 195.769 150.297C195.967 148.92 196.21 147.562 196.584 146.222C196.827 145.345 198.191 145.72 197.947 146.598C197.574 147.939 197.33 149.297 197.132 150.672ZM192.173 166.876C191.264 166.857 191.264 165.443 192.173 165.462C192.998 165.48 193.808 165.697 194.602 165.895C195.487 166.116 195.108 167.481 194.227 167.26C193.554 167.092 192.87 166.892 192.173 166.876ZM190.344 199.52C190.03 199.673 189.709 199.809 189.394 199.955C188.761 200.244 188.129 200.533 187.496 200.824C186.178 201.428 184.861 202.036 183.545 202.646C180.911 203.866 178.258 205.042 175.617 206.247C172.924 207.479 170.239 208.725 167.557 209.978C166.293 210.568 165.021 211.136 163.749 211.711C162.662 212.203 161.32 213.062 160.127 213.143C160.066 213.146 160.046 213.069 160.081 213.029C160.532 212.517 161.25 212.219 161.842 211.884C162.447 211.544 163.064 211.224 163.677 210.9C164.956 210.221 166.235 209.549 167.527 208.895C170.11 207.588 172.698 206.291 175.286 204.994C177.925 203.671 180.561 202.341 183.224 201.066C184.477 200.465 185.733 199.867 186.988 199.27C187.668 198.947 188.35 198.623 189.029 198.302C189.324 198.162 189.615 198.011 189.914 197.887C190.314 197.722 190.619 197.756 191.031 197.654C191.702 197.489 191.993 198.343 191.477 198.716C191.052 199.021 190.829 199.284 190.344 199.52ZM180.902 214.026C180.757 213.674 181.062 213.244 181.396 213.157C181.798 213.05 182.12 213.293 182.266 213.649C182.655 214.593 183.207 215.459 183.916 216.19C184.552 216.843 183.553 217.844 182.917 217.19C182.025 216.274 181.386 215.203 180.902 214.026ZM173.958 191.319C173.313 190.674 174.312 189.674 174.957 190.319L176.79 192.152C177.434 192.797 176.434 193.797 175.789 193.152L173.958 191.319ZM155.154 188.33C153.836 188.717 152.299 189.071 151.4 190.196C151.357 190.252 151.283 190.18 151.309 190.126C152.459 187.741 155.758 186.903 158.042 186.069C159.657 185.477 161.313 184.988 162.985 184.55C162.818 182.642 163.279 180.599 163.439 178.701C163.61 176.675 163.749 174.643 163.821 172.61C163.893 170.537 163.91 168.45 163.844 166.377C163.775 164.31 163.507 162.269 163.39 160.21C163.377 160.01 163.654 160.001 163.716 160.165C164.41 162.076 164.706 164.193 164.932 166.209C165.165 168.283 165.242 170.355 165.212 172.442C165.181 174.588 165.056 176.73 164.884 178.869C164.804 179.884 164.709 180.897 164.62 181.911C164.553 182.684 164.522 183.451 164.364 184.2C165.372 183.953 166.381 183.72 167.388 183.492C170.6 182.766 173.825 182.093 177.023 181.31C178.593 180.925 180.14 180.464 181.701 180.055C183.173 179.67 184.728 179.202 186.238 179.03C186.776 178.969 186.844 179.707 186.489 179.957C185.26 180.819 183.629 181.421 182.211 181.902C180.788 182.388 179.308 182.737 177.85 183.094C174.808 183.844 171.736 184.456 168.669 185.093C165.606 185.729 162.538 186.362 159.51 187.147C158.052 187.526 156.599 187.906 155.154 188.33ZM147.933 150.484C147.146 150.946 146.434 149.723 147.219 149.262C148.246 148.66 149.34 148.207 150.444 147.765C151.29 147.426 151.653 148.795 150.819 149.129C149.827 149.526 148.856 149.942 147.933 150.484ZM145.082 203.041C144.293 203.5 143.582 202.277 144.368 201.819C145.474 201.178 146.685 200.75 147.831 200.189C148.646 199.79 149.361 201.011 148.544 201.411C147.398 201.972 146.187 202.399 145.082 203.041ZM143.799 173.207C144.563 173.933 145.581 174.275 146.543 174.655C147.381 174.986 147.013 176.355 146.166 176.02C144.969 175.545 143.75 175.11 142.8 174.208C142.138 173.579 143.14 172.58 143.799 173.207ZM152.245 132.691C153.083 133.02 152.716 134.388 151.868 134.055C150.929 133.686 149.956 133.405 149.017 133.036C148.178 132.707 148.546 131.34 149.394 131.672C150.333 132.041 151.304 132.322 152.245 132.691ZM167.141 116.598C168.033 116.447 168.414 117.811 167.518 117.962C166.407 118.149 165.312 118.369 164.259 118.777C163.409 119.106 163.043 117.738 163.884 117.413C164.937 117.005 166.03 116.785 167.141 116.598ZM172.064 155.78C171.247 155.378 171.964 154.159 172.777 154.559C173.635 154.981 174.524 155.307 175.46 155.506C176.351 155.696 175.971 157.06 175.083 156.87C174.03 156.646 173.027 156.255 172.064 155.78ZM176.712 133.709C177.594 133.468 177.965 134.833 177.089 135.073C175.547 135.496 173.958 135.716 172.405 136.092C171.519 136.306 171.145 134.942 172.029 134.728C173.583 134.352 175.17 134.132 176.712 133.709ZM196.435 126.783C197.33 126.949 196.948 128.312 196.058 128.147C195.112 127.972 194.151 127.969 193.191 127.969C192.28 127.968 192.282 126.554 193.191 126.554C194.283 126.555 195.359 126.584 196.435 126.783ZM260.755 134.174C258.445 133.953 256.131 133.776 253.814 133.643C253.705 133.638 253.6 133.631 253.492 133.625C253.479 133.601 253.464 133.578 253.448 133.553C252.691 132.442 252.134 131.332 251.652 130.076C251.191 128.881 250.742 127.649 250.033 126.57C249.221 125.341 248.128 124.379 246.927 123.546C246.2 124.035 245.526 124.608 244.909 125.215C244.259 125.854 243.258 124.854 243.908 124.215C244.457 123.675 245.042 123.177 245.662 122.727C244.947 122.292 244.217 121.883 243.505 121.477C240.838 119.955 238.106 118.547 235.32 117.26C234.023 116.66 232.713 116.128 231.392 115.589C230.68 115.299 229.979 114.925 229.268 114.59C229.32 114.087 229.17 113.525 228.784 113.194C228.5 112.952 228.279 112.862 227.939 112.691C227.862 112.664 227.817 112.648 227.796 112.639C227.812 112.643 227.857 112.657 227.934 112.681C228.115 112.765 228.129 112.74 227.976 112.609C227.967 112.323 227.403 111.718 227.275 111.423C226.825 110.409 226.687 109.338 226.022 108.415C225.109 107.143 223.574 106.662 222.145 107.094C221.996 105.564 221.957 103.967 221.381 102.602C221.365 102.565 221.314 102.549 221.291 102.59C220.69 103.614 220.638 104.754 220.592 105.935C220.548 107.044 220.59 108.178 220.736 109.279C220.643 109.35 220.55 109.417 220.454 109.483C219.996 109.783 219.506 110.015 218.989 110.187C218.006 110.512 216.975 110.653 215.945 110.703C213.285 110.83 210.543 110.561 207.926 110.105C205.28 109.644 201.224 108.95 198.869 107.626C197.314 106.753 195.881 105.686 194.428 104.653C194.956 102.956 195.089 101.131 194.56 99.6967C194.495 99.5253 194.227 99.4934 194.176 99.6967C193.843 101.065 193.747 102.441 193.303 103.794C193.296 103.813 193.289 103.835 193.282 103.854C193.146 103.76 193.007 103.668 192.869 103.576C192.552 103.366 192.117 103.524 191.926 103.824C188.873 108.636 184.039 108.911 178.962 109.771C173.406 110.712 167.821 111.727 162.48 113.567C157.37 115.329 152.489 117.893 148.621 121.723C147.745 122.59 146.927 123.514 146.154 124.479C146.902 124.573 147.643 124.72 148.376 124.95C149.242 125.222 148.87 126.587 147.999 126.314C147.058 126.018 146.107 125.872 145.146 125.799C142.518 129.396 140.469 133.474 138.696 137.487C135.298 145.183 133.086 153.379 132.068 161.723C132.627 161.388 133.196 161.069 133.779 160.772C134.589 160.36 135.304 161.581 134.493 161.994C133.592 162.452 132.717 162.957 131.869 163.505C131.499 167.157 131.355 170.833 131.442 174.504C131.649 183.253 132.83 192.259 135.501 200.607C136.811 204.705 138.547 208.769 141.134 212.231C142.302 213.8 143.632 215.214 145.199 216.393C145.958 216.966 146.76 217.478 147.607 217.909C148.697 218.468 150.118 218.652 151.059 219.442C151.369 219.701 151.607 220.045 151.788 220.432C151.682 221.168 151.67 221.904 151.872 222.64C151.935 222.87 152.108 223.057 152.322 223.148C152.326 223.211 152.326 223.273 152.326 223.334C152.326 223.362 152.368 223.369 152.375 223.341C152.383 223.287 152.392 223.231 152.401 223.175C152.469 223.197 152.541 223.208 152.616 223.208C155.301 223.218 157.989 223.154 160.679 223.062C160.47 222.425 160.246 221.794 160.029 221.156C159.736 220.29 161.101 219.922 161.392 220.779C161.646 221.524 161.911 222.263 162.146 223.01C165.026 222.903 167.907 222.775 170.781 222.679C176.896 222.475 183.009 222.409 189.124 222.279C198.623 222.078 208.191 221.666 217.702 222.069C218.032 221.371 218.4 220.688 218.75 219.999C219.162 219.186 220.382 219.903 219.97 220.714C219.728 221.193 219.476 221.666 219.237 222.142C221.165 222.242 223.089 222.375 225.01 222.556C228.286 222.863 231.533 223.409 234.807 223.749C238.134 224.096 241.392 224.033 244.693 223.485C245.287 223.385 245.638 223.026 245.783 222.581C245.788 222.579 245.792 222.575 245.795 222.57C245.964 222.372 246.123 222.207 246.288 222.064C246.484 221.937 246.696 221.829 246.945 221.734C247.411 221.557 247.895 221.449 248.387 221.377C248.927 221.294 249.475 221.287 250.017 221.221C250.472 221.163 250.917 221.075 251.363 220.97C252.163 220.779 252.924 220.529 253.681 220.199C254.34 219.91 254.936 219.496 255.498 219.046C256.662 218.194 257.669 217.11 258.549 215.981C259.062 215.321 259.544 214.637 259.982 213.924C260.746 212.69 261.396 211.408 262.055 210.116C262.293 209.733 262.511 209.34 262.711 208.941C261.424 208.56 260.128 208.252 258.764 208.231C257.855 208.215 257.855 206.801 258.764 206.815C260.327 206.841 261.806 207.206 263.275 207.64C263.345 207.451 263.415 207.258 263.478 207.066C263.653 206.661 263.797 206.245 263.918 205.823C263.988 205.632 264.06 205.441 264.13 205.25C264.289 204.59 264.449 203.927 264.608 203.263C264.929 202.203 265.181 201.125 265.367 200.034C265.523 199.317 265.644 198.593 265.724 197.861C265.972 196.087 266.173 194.318 266.187 192.525C266.166 191.419 266.096 190.315 265.975 189.218C265.924 188.472 265.838 187.729 265.721 186.991C265.569 185.894 265.418 184.809 265.165 183.727C264.976 182.996 264.787 182.263 264.598 181.531C264.126 180.005 263.569 178.508 262.928 177.047C262.893 176.954 262.714 176.752 262.605 176.751C262.525 176.749 262.411 176.824 262.449 176.922C262.453 176.931 262.456 176.942 262.46 176.95C262.423 176.868 262.386 176.782 262.35 176.7C262.318 176.623 262.194 176.467 262.099 176.468C262.094 176.468 262.088 176.468 262.081 176.47C262.106 176.453 262.129 176.43 262.152 176.402C262.786 175.652 263.198 174.662 263.653 173.793C264.03 173.074 264.384 172.317 264.487 171.506C264.577 170.795 264.456 170.092 264.007 169.515C263.499 168.858 262.541 168.552 263.073 167.604C263.678 166.524 264.566 165.59 263.681 164.364C263.231 163.74 262.516 163.397 261.985 162.854C261.375 162.226 261.086 161.386 261.102 160.528C261.139 160.55 261.188 160.539 261.205 160.486C261.719 158.937 261.347 157.236 260.823 155.727C260.536 154.909 259.93 154.684 259.225 154.644C262.279 148.676 265.137 142.612 267.685 136.409C267.769 136.205 267.854 136.002 267.936 135.799C268.06 135.494 267.797 135.09 267.496 135.022C265.293 134.54 262.998 134.386 260.755 134.174Z" fill="black"/>
<path fill-rule="evenodd" clip-rule="evenodd" d="M183.609 0.0244119C184.695 -0.138886 185.515 0.535841 185.906 1.48687L185.927 1.53809C186.053 1.86169 186.192 2.17644 186.343 2.4859C189.064 1.15083 192.945 1.49388 194.668 4.19762C195.896 6.12863 195.146 8.42035 194.684 10.4681L194.379 11.8172C194.967 12.1915 195.409 12.8614 195.39 13.5551L195.386 13.6086L195.264 15.49C195.656 15.0923 196.014 14.6589 196.334 14.1974C196.555 13.7924 196.793 13.3946 197.049 13.0091C198.558 10.7404 201.943 12.7121 200.699 15.1417C200.459 15.6103 200.191 16.0541 199.904 16.482C199.578 17.1134 199.311 17.7623 199.106 18.429C199.695 18.6854 200.147 19.2549 200.195 20.1142C200.307 22.1213 199.252 23.7958 197.577 24.8479C197.084 25.1574 196.574 25.2176 196.113 25.1027C196.031 25.2122 195.95 25.3219 195.873 25.4333C196.541 25.9762 197.144 26.5951 197.661 27.2812C199.22 27.0477 200.789 26.9381 202.357 26.9345C204.272 25.9957 206.568 26.0151 208.627 26.367C209.953 26.5934 211.225 27.0336 212.531 27.3502C213.905 27.6826 215.301 27.6949 216.693 27.9213C218.447 28.206 219.985 29.0159 220.951 30.3084C222.014 30.3403 223.131 30.7754 224.058 31.366C226.215 32.7417 228.358 34.1369 230.509 35.5216C231.335 36.053 231.643 36.9017 231.493 37.8481L231.482 37.9087L231.41 38.3012L231.58 38.5429C232.237 39.473 232.954 40.4471 233.38 41.4736C234.168 42.6107 234.882 43.8024 235.512 45.0315C236.362 46.6831 237.065 48.4338 237.54 50.2303C237.659 50.6848 237.776 51.1427 237.855 51.606C237.966 52.2603 237.794 52.7678 237.701 53.3956C237.584 54.1914 237.542 54.9978 237.417 55.7952C237.335 56.3239 236.886 56.5838 236.415 56.598C236.592 57.9437 236.72 59.2983 236.842 60.6421C237.012 62.5625 237.13 64.4883 237.231 66.4139C237.75 67.169 238.812 67.7667 239.579 67.9736C240.643 68.2582 241.756 67.9487 242.76 67.5863C243.391 67.3582 243.909 68.1522 243.601 68.6826C242.634 70.3483 240.566 70.3413 238.999 69.604C238.337 69.2928 237.755 68.8419 237.324 68.2547C237.351 68.8135 237.379 69.3723 237.407 69.9329L237.433 70.4405C237.752 76.3701 238.44 82.5036 237.326 88.3745C235.397 98.5442 226.984 106.287 216.707 106.889C211.315 107.204 206.824 105.611 204.589 104.722C202.357 103.833 203.224 102.021 204.775 102.539C207.446 103.431 212.352 104.761 216.743 104.187C227.091 102.834 235.866 97.6596 234.964 75.3757C234.836 72.2156 234.443 69.0539 234.358 65.894C234.277 62.8048 234.307 59.7138 234.17 56.6264L234.125 55.5729C234.072 54.3421 234.016 53.1054 233.923 51.8731C233.813 51.3955 233.72 50.911 233.583 50.4425C233.215 49.1675 232.731 47.9279 232.132 46.7449C231.999 46.8459 231.852 46.9182 231.691 46.9466C230.469 47.1658 229.323 47.104 228.179 46.5947C227.646 46.3594 227.175 46.0465 226.737 45.6592C226.528 45.4771 226.39 45.3003 226.279 45.1163C225.726 45.1253 225.172 44.959 224.827 44.5612C224.431 44.1077 224.366 43.6393 224.52 43.2056L224.536 43.1623L224.497 43.1483C224.031 44.356 223.101 45.4188 222.081 46.1367C220.469 47.2755 218.452 47.6044 216.517 47.6344C214.383 47.6663 212.131 47.3374 210.023 47.0015C209.466 46.913 208.914 46.8122 208.371 46.6761C208.35 46.6973 208.329 46.722 208.304 46.7432C206.496 48.4744 203.953 48.9201 201.658 47.9316C200.333 47.3603 199.22 46.4409 198.237 45.3869C198.223 45.9387 198.195 46.4903 198.148 47.0367L198.129 47.2538C198.03 48.2714 197.841 49.351 197.074 50.0853C195.83 51.2753 194.026 50.798 192.593 50.0235C192.595 50.0606 192.595 50.0995 192.595 50.1384C192.982 51.4539 193.371 52.7715 193.76 54.0888L193.844 54.3694C194.126 55.3048 194.436 56.2414 194.522 57.2204C194.685 59.0913 193.439 60.9391 191.361 60.3115C190.271 59.9834 189.397 59.0663 188.559 58.3315L188.032 57.8747C189.397 62.3433 190.345 66.9709 190.432 71.634C190.439 71.8869 190.22 72.0779 189.98 72.0866C189.418 72.1096 188.813 71.9983 188.249 71.7737C188.216 71.7719 188.184 71.7702 188.151 71.7647C187.185 71.6251 186.29 71.2767 185.5 70.7622C185.682 71.3405 185.763 71.9612 185.715 72.61C185.703 72.7674 185.458 72.8223 185.423 72.6489C184.965 70.4049 182.34 68.7092 180.078 69.1389C177.649 69.6005 175.86 71.6906 175.422 74.0688C174.951 76.6241 175.851 79.579 177.518 81.5507C178.285 82.4596 179.295 83.2182 180.493 83.4092C181.042 83.4957 181.611 83.4658 182.142 83.3102C182.368 83.2429 182.58 83.1491 182.796 83.0608C183.111 82.9334 183.479 82.914 183.775 82.7796C184.45 82.4773 185.126 83.098 184.785 83.7893C184.489 84.3924 184.222 84.7991 183.728 85.1103C184.128 85.5983 184.49 86.2774 184.625 86.4594C185.31 87.386 186.006 88.2613 186.788 89.1084C187.583 89.9679 188.452 90.7529 189.369 91.4798L189.754 91.7845C190.639 92.4856 191.408 93.1354 192.031 94.141C192.523 94.935 191.887 96.012 190.965 95.9995C188.084 95.9589 185.989 93.4266 184.497 91.2145C184.285 90.898 184.086 90.5637 183.9 90.2207C183.833 90.3285 183.758 90.4293 183.676 90.5213L183.84 90.9634C184.327 92.2648 182.226 93.1154 181.617 91.9005C181.171 91.02 180.658 90.1819 180.085 89.3896C179.747 89.3418 179.417 89.1368 179.233 88.8715C178.767 88.1977 178.247 87.5169 177.807 86.799C177.562 86.5674 177.311 86.3445 177.055 86.127C176.982 86.1925 176.905 86.2579 176.833 86.3269C176.51 87.0606 176.113 87.7309 175.62 88.3622L175.513 88.4968C174.569 89.688 173.339 90.9071 171.816 91.1985C171.35 91.287 170.903 90.7088 171.315 90.3392C172.382 89.3807 173.642 88.7283 174.625 87.6583C175.109 87.1313 175.554 86.5509 175.936 85.9425L176.023 85.8016C176.086 85.6973 176.151 85.5931 176.219 85.4869C175.776 85.1846 175.331 84.8804 174.888 84.5762C173.666 85.6201 172.075 86.0976 170.724 86.9623L170.591 87.0501C169.37 87.8671 168.082 86.0599 169.061 85.0677C170.141 83.9783 171.041 82.6792 171.998 81.4683C171.55 80.6396 171.336 79.6598 171.257 78.6695C171.225 78.3893 171.201 78.1088 171.176 77.8284C170.489 77.8389 169.801 77.6038 169.217 77.1988L168.996 77.0415C168.287 77.2679 167.544 77.3774 166.831 77.3579C165.155 77.3085 164.468 75.3934 165.516 74.182C166.587 72.9442 168.458 72.6737 169.941 73.2749C169.99 73.2502 170.039 73.2237 170.086 73.1971C170.016 72.8718 170.032 72.5766 170.113 72.3174L170.088 72.1594C169.762 71.6587 169.548 71.0871 169.466 70.4833C169.403 70.0051 169.415 69.5309 169.526 69.0586C169.562 68.9015 169.64 68.7385 169.697 68.5747C169.578 68.2701 169.506 67.9554 169.485 67.6387C169.45 67.5986 169.417 67.5574 169.385 67.5129C168.649 66.4792 168.798 65.2339 169.499 64.3975C169.501 64.3442 169.506 64.291 169.513 64.2382C169.473 64.1459 169.436 64.0527 169.401 63.9584C168.716 63.268 168.215 62.437 168.308 61.4074C168.364 60.8014 168.613 60.2561 168.989 59.8485C168.921 59.6508 168.916 59.4218 168.996 59.2306C168.395 57.6311 168.471 55.7045 168.904 53.9155C168.809 53.6432 168.76 53.3478 168.77 53.0348C168.819 51.7069 169.969 50.4868 171.329 50.5026C171.493 50.504 171.646 50.5255 171.795 50.5567L171.797 50.5252C171.847 50.1265 171.958 49.7582 172.117 49.4277C172.038 49.3991 171.967 49.3583 171.902 49.304C171.031 49.7696 170.107 50.1253 169.14 50.3676C168.429 50.546 167.7 49.737 168.141 49.0688C168.346 48.7589 168.574 48.4806 168.818 48.2263C168.471 48.2282 168.119 48.2517 167.763 48.2975C167.121 48.3807 166.408 47.9439 165.993 47.3533C165.476 47.8555 164.959 48.3558 164.44 48.8563C163.13 50.1278 161.148 49.1924 160.941 47.5159C160.55 47.4117 160.186 47.2349 159.865 46.982C157.797 47.8802 155.572 48.3735 153.298 48.4673C151.663 48.5346 150.709 46.6317 151.472 45.2879C151.985 44.386 152.621 43.5762 153.355 42.8723C152.216 43.2207 151.041 43.4718 149.84 43.6328C149.192 43.7194 148.275 43.1818 148.014 42.586C147.021 40.2941 147.107 37.9052 148.249 35.6754C148.295 35.5869 148.344 35.5021 148.391 35.4171C148.51 35.1219 148.638 34.8301 148.778 34.5436C147.371 33.0759 147.249 30.8939 148.007 29.0671C147.704 28.5738 147.587 27.9796 147.794 27.442C148.382 25.8947 149.23 24.4661 150.303 23.2388C150.199 23.0407 150.11 22.8303 150.033 22.6041C149.43 20.7738 150.129 18.5652 151.538 17.2902C152.423 16.4875 153.441 16.0064 154.529 15.6987C154.987 14.8888 155.576 14.1585 156.261 13.5432C156.287 13.4849 156.315 13.4265 156.345 13.3682C157.412 11.3558 159.357 10.2771 161.44 10.0277C161.523 9.24078 162.052 8.48939 162.823 8.2453C163.035 7.56453 163.352 6.91375 163.787 6.32314C164.47 5.39301 165.607 4.95446 166.678 5.56453C167.265 5.89875 167.828 6.28247 168.355 6.70686C168.592 6.59587 168.86 6.52404 169.161 6.50114L169.238 6.49644L170.982 6.40802C171.711 6.08442 172.44 5.74489 173.17 5.41423C173.609 5.05172 174.097 4.74934 174.632 4.52476C175.236 4.2719 175.855 4.12867 176.475 4.08092C176.98 3.91646 177.486 3.77146 178.003 3.6583C179.216 3.39305 180.485 3.24451 181.743 3.25688C181.769 2.93102 181.781 2.60123 181.78 2.26758L181.776 2.10041C181.748 1.03059 182.603 0.176495 183.609 0.0244119ZM182.386 85.6195C182.214 85.6567 182.039 85.6867 181.864 85.708C181.916 85.8388 181.969 85.9697 182.021 86.1005C182.162 86.1801 182.305 86.2562 182.449 86.3268C182.407 86.0864 182.381 85.8442 182.386 85.6195ZM173.305 82.9199L173.186 83.1363C173.169 83.1717 173.149 83.2068 173.13 83.2411C173.381 83.2217 173.631 83.2269 173.878 83.2553V83.229C173.847 83.2182 173.814 83.2082 173.784 83.1935C173.614 83.1113 173.454 83.0195 173.305 82.9199ZM178.214 73.0434C179.777 73.1345 181.101 73.3742 182.524 74.0587L182.647 74.1184C183.903 74.7426 185.982 75.8956 185.806 77.5489C185.757 78.0194 185.417 78.5145 184.879 78.4773C183.407 78.3765 182.565 76.8911 181.568 75.9645C180.562 75.0309 179.326 74.0708 178.108 73.4287C177.937 73.3385 178.005 73.0523 178.191 73.0432L178.214 73.0434ZM171.12 51.2594C170.745 51.2718 170.871 51.6361 171.064 51.3319C171.08 51.3072 171.099 51.2825 171.12 51.2594ZM191.351 26.9414C187.8 27.0346 184.229 29.1311 181.569 31.25C179.256 33.0934 177.26 35.2862 175.491 37.6496C175.037 38.8264 174.646 40.028 174.315 41.2385C174.097 42.0377 173.961 42.8459 173.78 43.6523L173.722 43.8993C173.58 44.1667 173.474 44.4545 173.397 44.7517C173.719 45.075 174.136 45.3065 174.597 45.4163C174.746 45.4515 174.868 45.5281 174.967 45.6298C175.336 45.0112 175.66 44.3583 175.848 43.6661L175.855 43.6342C176.568 42.4672 177.341 41.3366 178.17 40.2447C180.458 37.2297 182.976 34.4817 186.004 32.1953C188.302 30.4623 190.869 29.1043 193.597 28.222C192.929 27.6828 192.171 27.2563 191.351 26.9414Z" fill="black"/>
<path fill-rule="evenodd" clip-rule="evenodd" d="M223.346 92.511C222.044 92.8883 220.646 92.922 219.32 92.5324C218.116 92.179 216.879 91.4011 215.994 90.3718C215.205 89.4576 214.695 88.3465 214.716 87.1604C214.718 87.0249 214.767 86.9119 214.841 86.8241C214.921 86.7297 215.033 86.6648 215.153 86.6366C215.277 86.6077 215.407 86.6178 215.519 86.6683C215.619 86.7141 215.705 86.7917 215.759 86.9051C215.896 87.0841 216.03 87.2604 216.167 87.4318C217.262 88.7842 218.322 89.795 219.968 90.1575C220.862 90.3541 221.753 90.2669 222.572 89.9669C223.45 89.6455 224.242 89.0805 224.862 88.3577C225.142 88.0309 225.474 87.8976 225.798 87.8953C226.164 87.8928 226.527 88.0633 226.8 88.336C227.068 88.6041 227.249 88.9682 227.264 89.3492C227.28 89.6835 227.17 90.0327 226.881 90.3445C225.924 91.3708 224.687 92.1227 223.346 92.511ZM223.306 75.572C224.641 76.3837 226.676 78.2763 225.239 80.2885C223.55 82.0627 221.116 80.0285 219.915 79.1085C218.804 78.3955 217.555 80.2293 218.585 81.0618C227.252 87.48 230.769 75.7842 223.982 74.6177C223.234 74.4891 222.957 75.3209 223.306 75.572ZM210.819 72.0006C210.39 71.726 209.885 71.6319 209.326 71.8864C208.89 72.0853 208.122 72.7482 207.59 73.6194C207.223 74.2155 206.966 74.9149 207.018 75.6435C207.032 75.8126 206.969 75.9374 206.871 76.0295C206.792 76.1024 206.68 76.1559 206.549 76.1727C206.437 76.1869 206.31 76.1741 206.209 76.1422C206.014 76.0816 205.911 75.9556 205.872 75.8527C205.499 74.8604 205.66 73.7529 206.079 72.7538C206.643 71.4054 207.67 70.276 208.341 69.9119C209.493 69.2886 210.849 69.2598 212.002 69.8949C212.983 70.4353 213.595 71.3079 214.205 72.1974C214.334 72.3865 214.464 72.5741 214.597 72.7585C214.863 73.128 214.89 73.4945 214.786 73.8086C214.672 74.1568 214.38 74.4505 214.015 74.6044C213.679 74.7465 213.288 74.7665 212.941 74.6205C212.65 74.4971 212.382 74.2567 212.212 73.8488C211.927 73.1617 211.45 72.4036 210.819 72.0006ZM232.609 73.5292C232.316 73.6823 232.085 73.7284 231.759 73.6308C231.579 73.5766 231.402 73.4727 231.262 73.3332C231.123 73.195 231.023 73.0231 230.985 72.8323C230.89 72.3616 230.632 71.9209 230.266 71.6335C229.953 71.388 229.557 71.2578 229.117 71.3312C228.644 71.4104 228.191 71.7145 227.881 72.0728C227.776 72.1927 227.696 72.329 227.613 72.4643C227.461 72.7171 227.312 72.9523 227.1 73.1382C227.019 73.2088 226.898 73.2577 226.783 73.2577C226.735 73.2577 226.686 73.25 226.641 73.2358C226.169 72.7622 226.078 72.4031 226.094 72.0467C226.11 71.6731 226.257 71.2948 226.495 70.9419C227.052 70.1141 228.113 69.4352 228.828 69.2814C229.807 69.0709 230.78 69.3236 231.559 69.8709C232.362 70.4339 232.956 71.3081 233.142 72.2932C233.187 72.5305 233.168 72.7865 233.077 73.0085C232.989 73.2257 232.835 73.4114 232.609 73.5292ZM212.98 63.1735C212.391 63.7464 211.695 63.8352 210.993 63.9141C210.602 63.9584 210.288 63.994 209.981 64.0634C209.137 64.254 208.303 64.5412 207.541 64.9548C206.745 65.3871 205.878 65.9084 205.254 66.5763C205.105 66.7353 204.966 66.9019 204.826 67.0691C204.698 67.2215 204.576 67.3682 204.446 67.5098C204.297 67.6722 204.155 67.8426 204.015 68.0124C203.927 68.1557 203.91 68.1909 203.892 68.2277C203.866 68.2829 203.836 68.3446 203.801 68.4108C203.752 68.5014 203.696 68.6006 203.638 68.6907C203.54 68.8552 203.487 68.9004 203.442 68.9208C203.367 68.9542 203.295 68.9709 203.226 68.9619C203.161 68.9535 203.1 68.9222 203.039 68.8712C202.737 68.616 202.648 68.1976 202.657 67.7532C202.671 67.0791 202.92 66.3326 203.149 65.8737C203.682 64.8074 204.421 63.6991 205.31 62.9032C206.323 61.9949 207.434 61.3072 208.708 60.8333C209.5 60.5388 210.416 60.2684 211.278 60.3026C211.898 60.3271 212.493 60.5118 212.981 60.9728C213.283 61.2558 213.427 61.6585 213.427 62.0608C213.427 62.4712 213.276 62.8839 212.98 63.1735ZM233.804 68.4193C233.767 68.4806 233.716 68.5228 233.659 68.5482C233.597 68.5747 233.531 68.5824 233.466 68.5715C233.401 68.5607 233.34 68.5314 233.292 68.4869C233.245 68.4441 233.21 68.3874 233.194 68.318C232.804 66.6035 232.047 65.3278 230.429 64.5053C229.634 64.1007 228.719 63.8436 227.852 63.6386C227.601 63.579 227.335 63.5403 227.066 63.5012C226.227 63.3787 225.383 63.2384 224.836 62.5597C224.505 62.1509 224.366 61.628 224.445 61.15C224.519 60.6998 224.781 60.287 225.26 60.0397C226.45 59.4241 227.929 60.0281 229.131 60.5426C229.22 60.5808 229.308 60.6183 229.394 60.6544C230.568 61.1507 231.64 61.8057 232.521 62.7425C233.221 63.4858 233.869 64.5845 234.13 65.7147C234.346 66.655 234.295 67.6149 233.804 68.4193Z" fill="black"/>
</svg>
